<svg xmlns="http://www.w3.org/2000/svg" width="39.176" height="28.313" viewBox="0 0 39.176 28.313"><defs><style>.a,.b{fill:none;stroke:#28b873;stroke-linecap:round;}.b{stroke-miterlimit:10;}</style></defs><g transform="translate(-42.5 -199.883)"><path class="a" d="M170.177,25.354V21.7a3.26,3.26,0,0,0-3.366-3.143H135.166a1.256,1.256,0,1,1,0-2.507h32.163" transform="translate(-90.824 184.335)"/><g transform="translate(43 201.718)"><path class="b" d="M133.623,16.976V40.141a2.912,2.912,0,0,0,3,2.814h29.857a3.253,3.253,0,0,0,3.353-3.143V33.967" transform="translate(-133.623 -16.976)"/><path class="b" d="M159.855,30.221h-8.132a3.62,3.62,0,1,1,0-7.24h8.132a1.009,1.009,0,0,1,1.009,1.009v5.224A1.008,1.008,0,0,1,159.855,30.221Z" transform="translate(-122.688 -13.232)"/><line class="b" y2="6.717" transform="translate(2.644 3.955)"/></g></g></svg>