<svg xmlns="http://www.w3.org/2000/svg" width="26.521" height="26.164" viewBox="0 0 26.521 26.164"><defs><style>.a{fill:#3a589e;}</style></defs><g transform="translate(2.94 -18)"><path class="a" d="M26.578,13.259A13.262,13.262,0,0,0,13.319,0c-.212,0-.434.009-.646.018A13.363,13.363,0,0,0,.06,12.86v.4a13.062,13.062,0,0,0,11.188,12.9v-8.78H7.84V13.126h3.408V10.117c0-3.416,2.115-5.293,5.346-5.293a22.278,22.278,0,0,1,3.169.257V8.86H17.9c-1.823,0-2.4,1.053-2.4,2.133v2.133h3.638l-.575,4.257H15.5c-.009,2.93-.018,5.851-.035,8.78a13.143,13.143,0,0,0,8.674-5.045A12.852,12.852,0,0,0,26.578,13.259Z" transform="translate(-3 18)"/></g></svg>