<svg xmlns="http://www.w3.org/2000/svg" xmlns:xlink="http://www.w3.org/1999/xlink" width="25.569" height="26.163" viewBox="0 0 25.569 26.163"><defs><style>.a{clip-path:url(#a);}.b{fill:#fbbc05;}.c{fill:#ea4335;}.d{fill:#34a853;}.e{fill:#4285f4;}</style><clipPath id="a"><path d="M-343.529,296h-12.19v5.054h7.017c-.654,3.211-3.389,5.054-7.017,5.054a7.715,7.715,0,0,1-7.73-7.73,7.715,7.715,0,0,1,7.73-7.73,7.563,7.563,0,0,1,4.816,1.724l3.806-3.806a13.022,13.022,0,0,0-8.622-3.27A13.044,13.044,0,0,0-368.8,298.382a13.044,13.044,0,0,0,13.082,13.082c6.541,0,12.487-4.757,12.487-13.082A10.851,10.851,0,0,0-343.529,296Z" transform="translate(368.8 -285.3)"/></clipPath></defs><g class="a"><path class="b" d="M-370.8,309.76V294.3l10.109,7.73Z" transform="translate(369.611 -288.948)"/></g><g class="a"><path class="c" d="M-370.8,289.841l10.109,7.73,4.162-3.627,14.271-2.319V283.3H-370.8Z" transform="translate(369.611 -284.489)"/></g><g class="a"><path class="d" d="M-370.8,305.3l17.839-13.676,4.7.595,6.006-8.919v28.542H-370.8Z" transform="translate(369.611 -284.489)"/></g><g class="a"><path class="e" d="M-336.988,316.3l-18.433-14.271-2.378-1.784,20.812-5.946Z" transform="translate(364.341 -288.948)"/></g></svg>