<svg xmlns="http://www.w3.org/2000/svg" width="245.097" height="74.914" viewBox="0 0 245.097 74.914"><defs><style>.a{fill:#fff;}.b{fill:#f5cb39;}</style></defs><g transform="translate(0 0)"><g transform="translate(0 0)"><path class="a" d="M498.369,551.508v18.507a3.356,3.356,0,0,1-3.357,3.383,3.4,3.4,0,0,1-2.443-.974,3.2,3.2,0,0,1-1.018-2.409V509.624a3.22,3.22,0,0,1,1.043-2.46,3.428,3.428,0,0,1,2.417-.974,3.232,3.232,0,0,1,2.391.974,3.348,3.348,0,0,1,.966,2.46v33.887l19.225-17.944a3.285,3.285,0,0,1,1.1-.667,3.7,3.7,0,0,1,1.205-.2,3.5,3.5,0,0,1,3.434,3.434,2.882,2.882,0,0,1-1.076,2.409l-18.2,16.97L525.182,567.6a3.015,3.015,0,0,1,.922,2.205,3.425,3.425,0,0,1-1,2.435,3.176,3.176,0,0,1-2.383,1.052,3.794,3.794,0,0,1-1.307-.233,3.267,3.267,0,0,1-1.205-.793Z" transform="translate(-491.551 -499.099)"/><path class="a" d="M842.686,566.734a3.249,3.249,0,0,1,2.434.974,3.321,3.321,0,0,1,.949,2.409,3.168,3.168,0,0,1-3.332,3.332,17.9,17.9,0,0,1-6.716-1.231,15.471,15.471,0,0,1-5.331-3.511,15.972,15.972,0,0,1-3.511-5.484,19.437,19.437,0,0,1-1.256-7.151v-46.4a3.473,3.473,0,0,1,.949-2.486,3.146,3.146,0,0,1,2.383-1,3.426,3.426,0,0,1,2.435,1,3.3,3.3,0,0,1,1.051,2.486v46.292q0,5.127,2.64,7.946A9.515,9.515,0,0,0,842.686,566.734Z" transform="translate(-670.026 -499.099)"/><path class="a" d="M881.341,515.79a4.027,4.027,0,0,1,4.1-4.1,4.062,4.062,0,0,1,2.948,1.178,4.116,4.116,0,0,1,0,5.818,4.013,4.013,0,0,1-2.948,1.2,3.925,3.925,0,0,1-2.922-1.2A3.988,3.988,0,0,1,881.341,515.79Z" transform="translate(-699.607 -502.034)"/><path class="a" d="M882.661,547.719a3.444,3.444,0,0,1,3.46-3.487,3.172,3.172,0,0,1,2.416,1,3.49,3.49,0,0,1,.942,2.486v42.8a3.327,3.327,0,0,1-.993,2.436,3.219,3.219,0,0,1-2.365,1,3.365,3.365,0,0,1-2.444-1,3.283,3.283,0,0,1-1.017-2.436Z" transform="translate(-700.312 -519.404)"/><path class="a" d="M936.287,573.5,917.576,592.62a3.394,3.394,0,0,1-2.562,1.076,3.3,3.3,0,0,1-1.282-.257,3.594,3.594,0,0,1-1.1-.718,3.526,3.526,0,0,1-.768-1.049,2.875,2.875,0,0,1-.282-1.258,2.948,2.948,0,0,1,.308-1.333,5.2,5.2,0,0,1,.82-1.178l18.815-19.277-18.3-18.66a3.211,3.211,0,0,1-.744-3.666,3.7,3.7,0,0,1,.769-1.127,3.756,3.756,0,0,1,1.1-.768,3.049,3.049,0,0,1,1.282-.283,3.44,3.44,0,0,1,2.512,1.078l18.147,18.557,18.1-18.507a3.5,3.5,0,0,1,2.563-1.078,3.511,3.511,0,0,1,3.384,3.385,3.672,3.672,0,0,1-1.078,2.511l-18.2,18.558L959.819,587.8a3.423,3.423,0,0,1,1.025,2.513,3.077,3.077,0,0,1-1.051,2.384,3.407,3.407,0,0,1-2.333.947,3.1,3.1,0,0,1-2.358-.974Z" transform="translate(-715.747 -519.346)"/><g transform="translate(38.705)"><path class="a" d="M721.268,594.319a23.891,23.891,0,0,1-9.69-1.975,24.876,24.876,0,0,1-7.843-5.356,25.5,25.5,0,0,1-5.28-7.922,24.346,24.346,0,0,1-1.948-9.715,24.685,24.685,0,0,1,1.946-9.791,25.775,25.775,0,0,1,5.275-7.972,24.648,24.648,0,0,1,7.836-5.382,24.829,24.829,0,0,1,19.408,0,24.635,24.635,0,0,1,13.084,13.328,25.178,25.178,0,0,1,1.921,9.817v21.07a3.43,3.43,0,0,1-1.018,2.513,3.379,3.379,0,0,1-2.492,1.025,3.04,3.04,0,0,1-2.418-1.025,3.7,3.7,0,0,1-.89-2.513l-.051-3.691a24.878,24.878,0,0,1-7.92,5.562A24.04,24.04,0,0,1,721.268,594.319Zm-.026-6.819a17.562,17.562,0,0,0,12.809-5.356,18.73,18.73,0,0,0,3.747-19.866,17.965,17.965,0,0,0-3.747-5.792,17.682,17.682,0,0,0-12.809-5.333,17.305,17.305,0,0,0-7.059,1.437,17.893,17.893,0,0,0-9.472,9.688,18.234,18.234,0,0,0-1.386,7.074,17.919,17.919,0,0,0,1.386,7,18.508,18.508,0,0,0,3.8,5.794,17.812,17.812,0,0,0,5.673,3.921A17.3,17.3,0,0,0,721.243,587.5Z" transform="translate(-639.654 -519.404)"/><path class="b" d="M643.127,511.34l18.535-19.491a2.792,2.792,0,0,1,4.088.044l17.28,18.973a61.394,61.394,0,0,0-19.359-3.018A60.669,60.669,0,0,0,643.127,511.34Z" transform="translate(-611.162 -490.981)"/><ellipse class="b" cx="3.639" cy="3.639" rx="3.639" ry="3.639" transform="translate(71.868 38.316)"/><g transform="translate(0 24.828)"><path class="a" d="M599.328,594.319a23.89,23.89,0,0,1-9.689-1.975,24.865,24.865,0,0,1-7.843-5.356,25.506,25.506,0,0,1-5.281-7.922,24.353,24.353,0,0,1-1.948-9.715,24.686,24.686,0,0,1,1.946-9.791,25.766,25.766,0,0,1,5.274-7.972,24.649,24.649,0,0,1,7.836-5.382,24.828,24.828,0,0,1,19.408,0,24.638,24.638,0,0,1,13.085,13.328,25.179,25.179,0,0,1,1.921,9.817v21.07a3.429,3.429,0,0,1-1.018,2.513,3.378,3.378,0,0,1-2.492,1.025,3.041,3.041,0,0,1-2.418-1.025,3.7,3.7,0,0,1-.89-2.513l-.051-3.691a24.889,24.889,0,0,1-7.92,5.562A24.041,24.041,0,0,1,599.328,594.319ZM599.3,587.5a17.562,17.562,0,0,0,12.808-5.356,18.73,18.73,0,0,0,3.747-19.866,17.96,17.96,0,0,0-3.747-5.792,17.682,17.682,0,0,0-12.808-5.333,17.306,17.306,0,0,0-7.06,1.437,17.893,17.893,0,0,0-9.473,9.688,18.233,18.233,0,0,0-1.386,7.074,17.917,17.917,0,0,0,1.386,7,18.517,18.517,0,0,0,3.8,5.794,17.818,17.818,0,0,0,5.673,3.921A17.3,17.3,0,0,0,599.3,587.5Z" transform="translate(-574.567 -544.232)"/></g><ellipse class="b" cx="3.639" cy="3.639" rx="3.639" ry="3.639" transform="translate(26.92 38.316)"/></g></g></g></svg>