<svg xmlns="http://www.w3.org/2000/svg" width="24.802" height="28.137" viewBox="0 0 24.802 28.137"><defs><style>.a{fill:none;stroke:#000;stroke-linecap:round;stroke-linejoin:round;}</style></defs><g transform="translate(-2115.695 1505.672)"><path class="a" d="M2137.432-1485.7v6.489a1.179,1.179,0,0,1-1.18,1.18h-18.877a1.179,1.179,0,0,1-1.18-1.18v-21.827a1.18,1.18,0,0,1,1.18-1.18h2.359"/><path class="a" d="M2133.893-1502.222h2.359a1.18,1.18,0,0,1,1.18,1.18v8.849"/><path class="a" d="M2135.072-1483.344v2.95h-16.518v-19.468h1.18"/><path class="a" d="M2133.893-1499.862h1.18v10.029"/><path class="a" d="M2130.943-1502.812h-1.77a2.36,2.36,0,0,0-2.36-2.36,2.36,2.36,0,0,0-2.359,2.36h-1.77a1.77,1.77,0,0,0-1.77,1.77v1.77h11.8v-1.77A1.771,1.771,0,0,0,2130.943-1502.812Z"/><line class="a" y2="1.18" transform="translate(2126.813 -1503.402)"/><path class="a" d="M2139.792-1491.6l-6.489,7.6-2.949-2.95"/><line class="a" x2="1.18" transform="translate(2122.094 -1495.143)"/><line class="a" x2="7.079" transform="translate(2124.454 -1495.143)"/><line class="a" x2="1.18" transform="translate(2122.094 -1492.783)"/><line class="a" x2="7.079" transform="translate(2124.454 -1492.783)"/><line class="a" x2="1.18" transform="translate(2122.094 -1490.423)"/><line class="a" x2="7.079" transform="translate(2124.454 -1490.423)"/></g></svg>
