<svg xmlns="http://www.w3.org/2000/svg" width="26.709" height="28.412" viewBox="0 0 26.709 28.412"><defs><style>.a{fill:none;stroke:#000;stroke-linecap:round;stroke-linejoin:round;}</style></defs><g transform="translate(-41.462 -327.364)"><g transform="translate(-2107.391 1832.673)"><path class="a" d="M2167.867-1483.134l-1.513,4.155,4.179,1.447"/><path class="a" d="M2163.527-1478.354a12.82,12.82,0,0,1-13.338-8.307,12.814,12.814,0,0,1,7.577-16.461c.077-.028.153-.056.23-.082"/><path class="a" d="M2163.316-1480.379a10.581,10.581,0,0,1-1.121.059,10.738,10.738,0,0,1-5.736-1.661"/><path class="a" d="M2160.856-1503.848a12.82,12.82,0,0,1,13.371,8.3,12.814,12.814,0,0,1-7.577,16.461c-.071.027-.143.052-.214.077"/><path class="a" d="M2168.457-1499.892a10.752,10.752,0,0,0-6.233-1.994,10.9,10.9,0,0,0-1.152.062"/><path class="a" d="M2156.549-1499.071l1.513-4.155-4.179-1.447"/><path class="a" d="M2167.909-1488.121c-.407-.412-1.129-1.178-1.78-1.242-1.446-.141-2.206,2.54-5.207-.461s-.32-3.76-.461-5.207c-.063-.65-.83-1.373-1.241-1.779-1.4-1.387-2.972.176-3.207,1.814-.2,1.4.39,4.171,3.151,6.931s5.53,3.35,6.931,3.15C2167.732-1485.149,2169.295-1486.719,2167.909-1488.121Z"/><path class="a" d="M2167.353-1492.305a3.928,3.928,0,0,0-1.154-2.791,3.925,3.925,0,0,0-2.791-1.153"/><path class="a" d="M2164.6-1492.492a1.306,1.306,0,0,0-.355-.653,1.309,1.309,0,0,0-.667-.359"/><path class="a" d="M2152.1-1487.366c.018.049.037.1.056.146"/><path class="a" d="M2152.964-1485.557a10.748,10.748,0,0,0,2.172,2.592"/><path class="a" d="M2172.263-1494.986c-.019-.048.018.049,0,0"/><path class="a" d="M2171.538-1496.5a10.72,10.72,0,0,0-1.9-2.416"/></g></g></svg>
