<svg xmlns="http://www.w3.org/2000/svg" xmlns:xlink="http://www.w3.org/1999/xlink" width="46.034" height="29.531" viewBox="0 0 46.034 29.531"><defs><style>.a{fill:#247839;}.b{fill:#3d434a;}.c{fill:#1e292f;}.d{fill:#07191f;}.e{fill:#3aa95f;}.f{fill:#525a5f;}.g{fill:#bb0015;}.h{fill:#c90016;}.i{fill:#5cb476;}.j{fill:#d0cecf;}.k{fill:#252f35;}.l{fill:url(#k);}.m{fill:#ffb773;}.n{fill:#2b903c;}.o{fill:#fff;}.p{fill:#fbbf22;}.q{filter:url(#l);}.r{filter:url(#i);}.s{filter:url(#g);}.t{filter:url(#e);}.u{filter:url(#c);}.v{filter:url(#a);}</style><filter id="a" x="1.107" y="0" width="25.846" height="22.238" filterUnits="userSpaceOnUse"><feOffset dy="3" input="SourceAlpha"/><feGaussianBlur stdDeviation="3" result="b"/><feFlood flood-opacity="0.302"/><feComposite operator="in" in2="b"/><feComposite in="SourceGraphic"/></filter><filter id="c" x="0" y="6.276" width="25.846" height="22.238" filterUnits="userSpaceOnUse"><feOffset dy="3" input="SourceAlpha"/><feGaussianBlur stdDeviation="3" result="d"/><feFlood flood-opacity="0.302"/><feComposite operator="in" in2="d"/><feComposite in="SourceGraphic"/></filter><filter id="e" x="21.459" y="7.484" width="24.575" height="20.575" filterUnits="userSpaceOnUse"><feOffset dy="3" input="SourceAlpha"/><feGaussianBlur stdDeviation="3" result="f"/><feFlood flood-opacity="0.302"/><feComposite operator="in" in2="f"/><feComposite in="SourceGraphic"/></filter><filter id="g" x="19.249" y="6.756" width="25.4" height="21.399" filterUnits="userSpaceOnUse"><feOffset dy="3" input="SourceAlpha"/><feGaussianBlur stdDeviation="3" result="h"/><feFlood flood-opacity="0.161"/><feComposite operator="in" in2="h"/><feComposite in="SourceGraphic"/></filter><filter id="i" x="10.34" y="3.451" width="29.112" height="25.355" filterUnits="userSpaceOnUse"><feOffset dy="3" input="SourceAlpha"/><feGaussianBlur stdDeviation="3" result="j"/><feFlood flood-opacity="0.302"/><feComposite operator="in" in2="j"/><feComposite in="SourceGraphic"/></filter><linearGradient id="k" x1="-295.8" y1="-29.676" x2="-295.8" y2="-28.857" gradientUnits="objectBoundingBox"><stop offset="0" stop-color="#676b71"/><stop offset="0.223" stop-color="#5f6369"/><stop offset="0.57" stop-color="#494f55"/><stop offset="0.995" stop-color="#252f35"/><stop offset="1" stop-color="#252f35"/></linearGradient><filter id="l" x="6.169" y="1.062" width="27.079" height="28.469" filterUnits="userSpaceOnUse"><feOffset dy="3" input="SourceAlpha"/><feGaussianBlur stdDeviation="3" result="m"/><feFlood flood-opacity="0.302"/><feComposite operator="in" in2="m"/><feComposite in="SourceGraphic"/></filter></defs><g transform="matrix(-0.174, 0.985, -0.985, -0.174, 312.026, -66.536)"><g transform="translate(120.67 256.725)"><g transform="translate(3.101 20.06)"><g class="v" transform="matrix(-0.17, -0.98, 0.98, -0.17, -4.06, 18.95)"><path class="a" d="M125.854,270.961a1.755,1.755,0,0,0-.457-.061c-1.4,0-2.535,1.666-2.535,3.719S124,278.34,125.4,278.34a1.756,1.756,0,0,0,.457-.061Z" transform="matrix(-0.17, 0.98, -0.98, -0.17, 306.07, -66.66)"/></g><g class="u" transform="matrix(-0.17, -0.98, 0.98, -0.17, -4.06, 18.95)"><path class="a" d="M127.365,270.961a1.771,1.771,0,0,1,.457-.061c1.4,0,2.535,1.666,2.535,3.719s-1.135,3.721-2.535,3.721a1.772,1.772,0,0,1-.457-.061Z" transform="matrix(-0.17, 0.98, -0.98, -0.17, 305.75, -64.82)"/></g></g><g transform="translate(0 6.379)"><rect class="b" width="2.058" height="0.499" transform="translate(2.994 0.593) rotate(-11.756)"/><path class="c" d="M120.68,262.74a.371.371,0,0,1,.28-.443l2.607-.584a.47.47,0,0,0-.161-.222.521.521,0,0,0-.429-.051l-1.719.443a.093.093,0,0,1-.045-.18l1.721-.443a.69.69,0,0,1,.582.081.663.663,0,0,1,.238.344.371.371,0,0,1,.065.733l-2.695.6A.372.372,0,0,1,120.68,262.74Z" transform="translate(-120.67 -261.232)"/></g><g transform="translate(10.47 6.379)"><rect class="b" width="0.499" height="2.058" transform="translate(0 0.662) rotate(-78.244)"/><path class="c" d="M132.68,262.74a.373.373,0,0,0-.282-.443l-2.605-.584a.466.466,0,0,1,.16-.222.525.525,0,0,1,.43-.051l1.718.443a.093.093,0,1,0,.047-.18l-1.721-.443a.694.694,0,0,0-.583.081.68.68,0,0,0-.238.344.371.371,0,0,0-.345.29.366.366,0,0,0,.047.276.37.37,0,0,0,.233.167l2.7.6A.372.372,0,0,0,132.68,262.74Z" transform="translate(-127.578 -261.232)"/></g><g class="t" transform="matrix(-0.17, -0.98, 0.98, -0.17, -0.96, 39.01)"><path class="d" d="M127.088,262.4v-4.932a.742.742,0,1,0-1.483,0V262.4a.742.742,0,0,0,1.483,0Z" transform="matrix(-0.17, 0.98, -0.98, -0.17, 311.67, -64.52)"/></g><g class="s" transform="matrix(-0.17, -0.98, 0.98, -0.17, -0.96, 39.01)"><path class="a" d="M127.549,263.792V258.86a1.1,1.1,0,0,0-2.195,0v4.932a1.1,1.1,0,1,0,2.195,0Z" transform="matrix(-0.17, 0.98, -0.98, -0.17, 311.26, -64.7)"/></g><path class="e" d="M127.088,263.687v-4.932a.742.742,0,0,0-1.483,0v4.932a.742.742,0,1,0,1.483,0Z" transform="translate(-118.622 -256.19)"/><g class="r" transform="matrix(-0.17, -0.98, 0.98, -0.17, -0.96, 39.01)"><rect class="f" width="5.655" height="10.286" transform="matrix(-0.17, 0.98, -0.98, -0.17, 30.45, 11.24)"/></g><path class="g" d="M127.873,278.677V275.21a1.348,1.348,0,0,0-2.7,0v3.467a1.348,1.348,0,0,0,2.7,0Z" transform="translate(-118.799 -249.61)"/><path class="h" d="M127.308,278.55v-3.467a.911.911,0,1,0-1.823,0v3.467a.911.911,0,0,0,1.823,0Z" transform="translate(-118.672 -249.482)"/><path class="d" d="M127.2,277.885h0a.218.218,0,0,0-.218-.218H125.76a.218.218,0,0,0-.217.218h0a.217.217,0,0,0,.217.217h1.226A.218.218,0,0,0,127.2,277.885Z" transform="translate(-118.648 -248.03)"/><g transform="translate(3.232 4.105)"><path class="e" d="M127.512,263.034a14.281,14.281,0,0,1,4.558.6c-.715-2.192-2.486-2.771-4.558-2.771s-3.842.579-4.558,2.771A14.292,14.292,0,0,1,127.512,263.034Z" transform="translate(-122.954 -259.114)"/><path class="a" d="M127.468,260.86c-1.94,0-3.616.508-4.408,2.372a18.065,18.065,0,0,1,8.818,0C131.085,261.368,129.408,260.86,127.468,260.86Z" transform="translate(-122.91 -259.114)"/><g transform="translate(2.857)"><path class="e" d="M126.674,262.623a1.7,1.7,0,0,1-1.7-1.7c0-.94.761-1.295,1.7-1.295s1.7.355,1.7,1.295A1.7,1.7,0,0,1,126.674,262.623Z" transform="translate(-124.973 -259.626)"/><path class="a" d="M125.106,260.509a2.524,2.524,0,0,0,1.359.221h.31a2.519,2.519,0,0,0,1.357-.221v.045a1.514,1.514,0,1,1-3.027,0Z" transform="translate(-124.918 -259.259)"/><path class="i" d="M126.652,259.626c-.764,0-1.411.235-1.625.829.214.491.86.451,1.625.451s1.411.04,1.626-.451C128.063,259.861,127.416,259.626,126.652,259.626Z" transform="translate(-124.951 -259.626)"/><path class="j" d="M125.173,260.389a1.911,1.911,0,0,1,2.836,0c-.171.265-.6.277-1.261.276h-.313C125.774,260.666,125.346,260.653,125.173,260.389Z" transform="translate(-124.89 -259.571)"/></g></g><g transform="translate(4.938 17.31)"><rect class="k" width="5.648" height="11.19" rx="1.624"/><rect class="l" width="4.978" height="10.226" rx="1.624" transform="translate(0.335 0.301)"/><path class="k" d="M128.963,273.267v-1.308a2.174,2.174,0,1,0-4.342,0v1.308Z" transform="translate(-123.968 -268.664)"/></g><g transform="translate(0.664 6.873)"><g class="q" transform="matrix(-0.17, -0.98, 0.98, -0.17, -1.63, 32.13)"><path class="c" d="M130.593,266.453a1.934,1.934,0,0,1,1,0c.391.122.647.635.514,1.336l-1.247,4.2a3.854,3.854,0,0,1-6.731,0l-1.245-4.2c-.134-.7.122-1.214.514-1.336a1.93,1.93,0,0,1,1,0Z" transform="matrix(-0.17, 0.98, -0.98, -0.17, 307.92, -66.34)"/></g><path class="e" d="M129.483,272.511l.733-4.582c0-1.363-1.407-1.895-3.128-1.895s-3.129.532-3.129,1.895l.733,4.582s.583.812,2.458.812S129.483,272.511,129.483,272.511Z" transform="translate(-119.968 -259.734)"/><path class="m" d="M121.34,263.868l.074-.7-.229-.733s-.167-.408.144-.528l1.357-.321s.234-.051.306.269l.173.621s.226-.037.26.259-.449.392-.449.392l-.355.095s-.248.156-.31.8Z" transform="translate(-121.139 -261.582)"/><g transform="translate(0.024 2.003)"><path class="e" d="M126.368,268.005a4.578,4.578,0,0,1-3.9-4.8l-1.3-.207s-.413,3.992,4.335,7.107Z" transform="translate(-121.157 -262.997)"/></g><path class="e" d="M122.469,263.2l-1.3-.207a4.65,4.65,0,0,0,0,.567l1.33.229Q122.469,263.509,122.469,263.2Z" transform="translate(-121.132 -260.994)"/><g transform="translate(9.004)"><path class="m" d="M131.672,263.868l-.074-.7.229-.733s.167-.408-.144-.528l-1.357-.321s-.233-.051-.306.269l-.173.621s-.226-.037-.259.259.447.392.447.392l.355.095s.248.156.31.8Z" transform="translate(-126.636 -261.582)"/><g transform="translate(0 2.003)"><path class="e" d="M127.5,268.005a4.578,4.578,0,0,0,3.9-4.8l1.3-.207s.413,3.992-4.335,7.107Z" transform="translate(-127.502 -262.997)"/></g><path class="e" d="M130.264,263.2l1.3-.207a4.8,4.8,0,0,1,0,.567l-1.332.229Q130.264,263.509,130.264,263.2Z" transform="translate(-126.366 -260.994)"/></g><g transform="translate(4.685 2.272)"><ellipse class="n" cx="2.229" cy="2.75" rx="2.229" ry="2.75" transform="translate(0.206)"/><ellipse class="e" cx="2.435" cy="2.715" rx="2.435" ry="2.715" transform="translate(0 1.2)"/><ellipse class="a" cx="1.459" cy="1.626" rx="1.459" ry="1.626" transform="translate(0.976 1.581)"/><path class="a" d="M126.886,267.994a2.537,2.537,0,0,1-2.41-2.319,3.017,3.017,0,0,0-.025.395,2.449,2.449,0,1,0,4.87,0,3.017,3.017,0,0,0-.025-.395A2.537,2.537,0,0,1,126.886,267.994Z" transform="translate(-124.449 -262.155)"/></g></g><g transform="translate(3.534 22.745)"><rect class="e" width="8.513" height="8.553" rx="0.858"/></g></g><g transform="translate(124.975 282.458)"><path class="o" d="M123.986,276.306v.519a.093.093,0,0,1-.028.068.089.089,0,0,1-.067.027.094.094,0,0,1-.068-.027.088.088,0,0,1-.028-.068v-1.694a.094.094,0,0,1,.028-.069.1.1,0,0,1,.068-.027.092.092,0,0,1,.068.027.093.093,0,0,1,.027.069v.951l.539-.5a.078.078,0,0,1,.031-.018.1.1,0,0,1,.034-.006.092.092,0,0,1,.068.028.1.1,0,0,1,.028.068.088.088,0,0,1-.03.068l-.511.475.593.563a.088.088,0,0,1,.025.062.093.093,0,0,1-.028.068.088.088,0,0,1-.067.03.1.1,0,0,1-.037-.006.089.089,0,0,1-.034-.023Z" transform="translate(-123.795 -274.835)"/><path class="o" d="M127.356,276.733a.094.094,0,0,1,.069.028.092.092,0,0,1,.027.066.093.093,0,0,1-.027.068.092.092,0,0,1-.068.026.511.511,0,0,1-.188-.034.409.409,0,0,1-.149-.1.452.452,0,0,1-.1-.153.54.54,0,0,1-.035-.2v-1.3a.093.093,0,0,1,.027-.069.083.083,0,0,1,.067-.028.092.092,0,0,1,.068.028.09.09,0,0,1,.03.069v1.3a.31.31,0,0,0,.075.222A.26.26,0,0,0,127.356,276.733Z" transform="translate(-122.512 -274.835)"/><path class="o" d="M127.4,275.2a.109.109,0,0,1,.034-.082.108.108,0,0,1,.082-.033.114.114,0,0,1,.082.2.111.111,0,0,1-.082.034.109.109,0,0,1-.082-.034A.11.11,0,0,1,127.4,275.2Z" transform="translate(-122.299 -274.814)"/><path class="o" d="M127.411,275.485a.092.092,0,0,1,.028-.071.093.093,0,0,1,.068-.028.089.089,0,0,1,.068.028.1.1,0,0,1,.027.071v1.2a.1.1,0,0,1-.028.069.091.091,0,0,1-.067.027.092.092,0,0,1-.068-.027.093.093,0,0,1-.028-.069Z" transform="translate(-122.294 -274.69)"/><path class="o" d="M128.371,276.21l-.525.536a.1.1,0,0,1-.072.03.076.076,0,0,1-.035-.007.078.078,0,0,1-.031-.02.072.072,0,0,1-.021-.03.076.076,0,0,1-.008-.035.082.082,0,0,1,.008-.037.122.122,0,0,1,.023-.033l.528-.542-.514-.524a.091.091,0,0,1-.028-.065.083.083,0,0,1,.008-.037.081.081,0,0,1,.021-.033.12.12,0,0,1,.031-.021.076.076,0,0,1,.035-.008.094.094,0,0,1,.071.031l.509.521.508-.519a.1.1,0,0,1,.072-.031.1.1,0,0,1,.095.1.1.1,0,0,1-.031.069l-.511.521.526.538a.1.1,0,0,1,.03.071.089.089,0,0,1-.03.068.1.1,0,0,1-.065.025.086.086,0,0,1-.067-.027Z" transform="translate(-122.183 -274.69)"/><g transform="translate(1.085)"><path class="o" d="M126.385,276.793a.656.656,0,0,1-.273-.057.7.7,0,0,1-.219-.15.728.728,0,0,1-.149-.222.677.677,0,0,1-.054-.273.689.689,0,0,1,.054-.275.735.735,0,0,1,.149-.224.7.7,0,0,1,.219-.15.683.683,0,0,1,.545,0,.708.708,0,0,1,.422.648v.592a.093.093,0,0,1-.03.071.091.091,0,0,1-.069.028.084.084,0,0,1-.068-.028.1.1,0,0,1-.025-.071v-.1a.69.69,0,0,1-.5.214Zm0-.193a.493.493,0,0,0,.464-.313.508.508,0,0,0,.038-.2.52.52,0,0,0-.038-.2.5.5,0,0,0-.1-.163.518.518,0,0,0-.158-.109.5.5,0,0,0-.2-.04.485.485,0,0,0-.2.04.5.5,0,0,0-.158.109.534.534,0,0,0-.108.163.52.52,0,0,0-.038.2.508.508,0,0,0,.038.2.534.534,0,0,0,.108.163.484.484,0,0,0,.357.15Z" transform="translate(-124.094 -274.69)"/><path class="p" d="M125.2,275.466l.521-.548a.078.078,0,0,1,.115,0l.484.532a1.761,1.761,0,0,0-.543-.083A1.692,1.692,0,0,0,125.2,275.466Z" transform="translate(-124.299 -274.894)"/><circle class="p" cx="0.102" cy="0.102" r="0.102" transform="translate(2.017 1.076)"/><g transform="translate(0 0.696)"><path class="o" d="M125.257,276.793a.654.654,0,0,1-.272-.057.68.68,0,0,1-.219-.15.728.728,0,0,1-.149-.222.678.678,0,0,1-.055-.273.689.689,0,0,1,.055-.275.731.731,0,0,1,.147-.224.686.686,0,0,1,.221-.15.645.645,0,0,1,.272-.057.656.656,0,0,1,.273.057.7.7,0,0,1,.219.15.676.676,0,0,1,.147.224.709.709,0,0,1,.054.275v.592a.1.1,0,0,1-.028.071.091.091,0,0,1-.069.028.08.08,0,0,1-.068-.028.1.1,0,0,1-.025-.071v-.1a.69.69,0,0,1-.5.214Zm0-.193a.491.491,0,0,0,.359-.15.527.527,0,0,0,.1-.163.508.508,0,0,0,.038-.2.52.52,0,0,0-.038-.2.527.527,0,0,0-.1-.163.509.509,0,0,0-.16-.109.487.487,0,0,0-.2-.04.481.481,0,0,0-.2.04.525.525,0,0,0-.16.109.506.506,0,0,0-.106.163.521.521,0,0,0-.04.2.51.51,0,0,0,.306.47A.482.482,0,0,0,125.257,276.6Z" transform="translate(-124.562 -275.386)"/></g><circle class="p" cx="0.102" cy="0.102" r="0.102" transform="translate(0.756 1.076)"/></g></g><g transform="translate(126.731 272.866)"><path class="o" d="M125.054,268.87v.272a.048.048,0,0,1-.016.035.044.044,0,0,1-.034.014.052.052,0,0,1-.037-.014.047.047,0,0,1-.014-.035v-.887a.046.046,0,0,1,.016-.035.051.051,0,0,1,.071,0,.05.05,0,0,1,.014.035v.5l.282-.263.017-.01.017,0a.047.047,0,0,1,.035.014.051.051,0,0,1,.016.035.045.045,0,0,1-.016.035l-.267.249.31.3a.045.045,0,0,1,.013.033.049.049,0,0,1-.014.035.048.048,0,0,1-.035.016l-.018,0-.018-.011Z" transform="translate(-124.953 -268.1)"/><path class="o" d="M126.817,269.094a.047.047,0,0,1,.035.014.053.053,0,0,1,.014.035.05.05,0,0,1-.014.035.049.049,0,0,1-.035.013.285.285,0,0,1-.1-.017.243.243,0,0,1-.078-.052.207.207,0,0,1-.051-.081.276.276,0,0,1-.018-.1v-.681a.053.053,0,0,1,.013-.037.051.051,0,0,1,.071,0,.044.044,0,0,1,.016.037v.679a.162.162,0,0,0,.04.117A.141.141,0,0,0,126.817,269.094Z" transform="translate(-124.281 -268.1)"/><path class="o" d="M126.839,268.292a.063.063,0,0,1,.017-.044.057.057,0,0,1,.042-.017.061.061,0,0,1,.044.017.063.063,0,0,1,.017.044.062.062,0,0,1-.017.042.061.061,0,0,1-.044.017.058.058,0,0,1-.042-.017A.062.062,0,0,1,126.839,268.292Z" transform="translate(-124.17 -268.09)"/><path class="o" d="M126.845,268.44a.051.051,0,0,1,.016-.037.047.047,0,0,1,.035-.014.045.045,0,0,1,.035.014.05.05,0,0,1,.014.037v.628a.053.053,0,0,1-.014.035.051.051,0,0,1-.035.016.053.053,0,0,1-.051-.051Z" transform="translate(-124.167 -268.024)"/><path class="o" d="M127.347,268.82l-.275.28a.046.046,0,0,1-.037.016l-.02,0L127,269.1l-.011-.016,0-.018,0-.018.013-.018.276-.283-.269-.273a.051.051,0,0,1-.016-.035l0-.018.011-.017.017-.011.018,0a.051.051,0,0,1,.037.016l.266.273.266-.272a.049.049,0,0,1,.038-.016.046.046,0,0,1,.034.014.051.051,0,0,1,.016.035.057.057,0,0,1-.016.037l-.267.272.276.282a.05.05,0,0,1,.014.037.042.042,0,0,1-.016.035.046.046,0,0,1-.034.014.042.042,0,0,1-.034-.014Z" transform="translate(-124.109 -268.024)"/><g transform="translate(0.569)"><path class="o" d="M126.308,269.123a.342.342,0,0,1-.142-.028.361.361,0,0,1-.115-.079.363.363,0,0,1-.078-.4.358.358,0,0,1,.192-.2.337.337,0,0,1,.142-.028.344.344,0,0,1,.143.028.374.374,0,0,1,.192.2.381.381,0,0,1,.028.144v.31a.051.051,0,0,1-.016.037.049.049,0,0,1-.037.016.046.046,0,0,1-.035-.016.055.055,0,0,1-.013-.037v-.054a.378.378,0,0,1-.117.081A.349.349,0,0,1,126.308,269.123Zm0-.1a.256.256,0,0,0,.1-.021.253.253,0,0,0,.083-.058.245.245,0,0,0,.055-.085.279.279,0,0,0,0-.207.245.245,0,0,0-.055-.085.252.252,0,0,0-.083-.058.256.256,0,0,0-.1-.021.25.25,0,0,0-.1.021.267.267,0,0,0-.083.058.245.245,0,0,0-.055.085.262.262,0,0,0,0,.207.245.245,0,0,0,.055.085.269.269,0,0,0,.083.058A.25.25,0,0,0,126.308,269.024Z" transform="translate(-125.11 -268.024)"/><path class="p" d="M125.686,268.43l.273-.286a.041.041,0,0,1,.059,0l.253.279a.93.93,0,0,0-.586.007Z" transform="translate(-125.218 -268.131)"/><circle class="p" cx="0.053" cy="0.053" r="0.053" transform="translate(1.055 0.563)"/><g transform="translate(0 0.365)"><path class="o" d="M125.717,269.123a.341.341,0,0,1-.142-.028.374.374,0,0,1-.192-.2.375.375,0,0,1,0-.286.358.358,0,0,1,.192-.2.337.337,0,0,1,.142-.028.344.344,0,0,1,.143.028.362.362,0,0,1,.115.079.342.342,0,0,1,.078.116.381.381,0,0,1,.028.144v.31a.051.051,0,0,1-.016.037.049.049,0,0,1-.037.016.048.048,0,0,1-.035-.016.055.055,0,0,1-.013-.037v-.054a.377.377,0,0,1-.117.081A.349.349,0,0,1,125.717,269.123Zm0-.1a.258.258,0,0,0,.188-.079.245.245,0,0,0,.055-.085.279.279,0,0,0,0-.207.245.245,0,0,0-.055-.085.258.258,0,0,0-.188-.079.255.255,0,0,0-.1.021.267.267,0,0,0-.083.058.245.245,0,0,0-.055.085.262.262,0,0,0,0,.207.244.244,0,0,0,.055.085.269.269,0,0,0,.083.058A.255.255,0,0,0,125.717,269.024Z" transform="translate(-125.355 -268.389)"/></g><circle class="p" cx="0.053" cy="0.053" r="0.053" transform="translate(0.395 0.563)"/></g></g></g></svg>