<svg xmlns="http://www.w3.org/2000/svg" width="36.672" height="24.327" viewBox="0 0 36.672 24.327"><defs><style>.a,.b{fill:none;}.a{stroke:#000;stroke-linecap:round;stroke-miterlimit:10;}</style></defs><g transform="translate(-50.388 -286.33)"><g transform="translate(50.441 286.33)"><path class="a" d="M33.04,6.116V17.88a2.286,2.286,0,0,0-2.084,2.437H6.564A2.286,2.286,0,0,0,4.481,17.88V6.116A2.286,2.286,0,0,0,6.564,3.68H30.957A2.286,2.286,0,0,0,33.04,6.116Z" transform="translate(-0.477 0.166)"/><path class="a" d="M1,0H34.671a1,1,0,0,1,1,1V22.28a1,1,0,0,1-1,1H1a1,1,0,0,1-1-1V1A1,1,0,0,1,1,0Z" transform="translate(0.447 0.523)"/><ellipse class="a" cx="2.204" cy="2.577" rx="2.204" ry="2.577" transform="translate(16.08 9.586)"/><line class="a" x2="2.623" transform="translate(9.573 12.164)"/><line class="a" x2="2.623" transform="translate(24.371 12.164)"/><rect class="b" width="36.567" height="24.327" transform="translate(0 0)"/><rect class="b" width="36.567" height="24.327"/></g></g></svg>
