<svg xmlns="http://www.w3.org/2000/svg" width="50.512" height="45.696" viewBox="0 0 50.512 45.696"><defs><style>.a{fill:#cdd4d9;}.b{fill:#edf0f5;mix-blend-mode:multiply;isolation:isolate;}.c,.d,.e,.f,.g,.h{fill:none;stroke:#cdd4d9;}.c,.d{stroke-miterlimit:10;}.c{stroke-width:1.5px;}.d{stroke-width:1.2px;}.e,.f,.g,.h{stroke-linecap:round;stroke-linejoin:round;}.e{stroke-width:2.164px;}.f{stroke-width:1.424px;}.g{stroke-width:1.036px;}.h{stroke-width:1.44px;}</style></defs><g transform="translate(0.75 1.53)"><g transform="translate(0 0)"><path class="a" d="M258.619,122.986a17.89,17.89,0,1,0,17.89,17.89A17.891,17.891,0,0,0,258.619,122.986Zm0,33.813a15.923,15.923,0,1,1,15.923-15.923A15.922,15.922,0,0,1,258.619,156.8Z" transform="translate(-234.367 -117.023)"/><path class="a" d="M262.583,147.079c.019-.194.031-.39.031-.587a5.478,5.478,0,0,0-10.956,0c0,.2.012.393.032.587Z" transform="translate(-232.916 -114.63)"/><path class="b" d="M244.325,140.52a17.083,17.083,0,0,1,8.3-14.848,15.929,15.929,0,0,0,0,29.7A17.084,17.084,0,0,1,244.325,140.52Z" transform="translate(-234.136 -116.667)"/><ellipse class="c" cx="2.549" cy="2.549" rx="2.549" ry="2.549" transform="translate(0 11.624)"/><ellipse class="a" cx="1.122" cy="1.122" rx="1.122" ry="1.122" transform="translate(39.114 5.188)"/><path class="a" d="M245.488,155.855a1.122,1.122,0,1,1-1.123-1.123A1.122,1.122,0,0,1,245.488,155.855Z" transform="translate(-234.033 -112.81)"/><path class="d" d="M274.459,120.2a1.6,1.6,0,1,1-.611-2.176A1.6,1.6,0,0,1,274.459,120.2Z" transform="translate(-230.287 -117.709)"/><g transform="translate(7.533 0)"><line class="e" x2="4.38" y2="4.38"/><line class="e" y1="4.38" x2="4.379"/></g><g transform="translate(43.843 28.562)"><line class="f" x2="4.911" y2="4.91"/><line class="f" y1="4.91" x2="4.911"/></g><g transform="translate(3.79 34.271)"><line class="g" x2="3.573" y2="3.573"/><line class="g" y1="3.573" x2="3.573"/></g><path class="h" d="M262.662,136.726l-3.314,1.672,3.736.152" transform="translate(-231.896 -115.2)"/><path class="h" d="M250.85,136.726l3.314,1.672-3.736.152" transform="translate(-233.079 -115.2)"/></g></g></svg>