<svg xmlns="http://www.w3.org/2000/svg" width="53.666" height="45.512" viewBox="0 0 53.666 45.512"><defs><style>.a{fill:#cdd4d9;}.b{fill:#edf0f5;mix-blend-mode:multiply;isolation:isolate;}.c,.d,.e,.f,.g,.h{fill:none;stroke:#cdd4d9;}.c,.d,.e{stroke-miterlimit:10;}.c{stroke-width:1.447px;}.d{stroke-width:1.5px;}.e{stroke-width:1.2px;}.f,.g,.h{stroke-linecap:round;stroke-linejoin:round;}.f{stroke-width:2.487px;}.g{stroke-width:1.8px;}.h{stroke-width:1.62px;}</style></defs><g transform="translate(0.75 1.118)"><g transform="translate(8.165 8.331)"><path class="a" d="M44.705,122.986a17.89,17.89,0,1,0,17.89,17.89A17.891,17.891,0,0,0,44.705,122.986Zm0,33.813a15.923,15.923,0,1,1,15.923-15.923A15.923,15.923,0,0,1,44.705,156.8Z" transform="translate(-26.815 -122.986)"/><path class="b" d="M30.411,140.52a17.081,17.081,0,0,1,8.3-14.848,15.928,15.928,0,0,0,0,29.7A17.083,17.083,0,0,1,30.411,140.52Z" transform="translate(-26.584 -122.63)"/><path class="c" d="M40.732,138.521a3.312,3.312,0,0,0,.019-.368,3.442,3.442,0,1,0-6.885,0,3.312,3.312,0,0,0,.02.368" transform="translate(-25.879 -121.43)"/><path class="c" d="M52.238,138.521a3.608,3.608,0,0,0,.02-.368,3.443,3.443,0,1,0-6.886,0,3.311,3.311,0,0,0,.02.368" transform="translate(-24.352 -121.43)"/></g><path class="d" d="M24.705,144.272a2.549,2.549,0,1,1-2.55-2.549A2.549,2.549,0,0,1,24.705,144.272Z" transform="translate(-19.607 -112.168)"/><path class="e" d="M57.612,153.07a1.6,1.6,0,1,1-1.6-1.6A1.6,1.6,0,0,1,57.612,153.07Z" transform="translate(-14.987 -110.874)"/><path class="a" d="M61.26,125.925a1.121,1.121,0,1,1-1.123-1.121A1.122,1.122,0,0,1,61.26,125.925Z" transform="translate(-14.376 -114.413)"/><path class="a" d="M28.4,149.223a1.121,1.121,0,1,1-1.121-1.121A1.122,1.122,0,0,1,28.4,149.223Z" transform="translate(-18.738 -111.321)"/><path class="f" d="M21.664,128.049l3.156,2.78,5.041-7.915" transform="translate(-19.334 -114.664)"/><path class="g" d="M60.751,148.936l1.951,1.719,3.117-4.894" transform="translate(-14.146 -111.632)"/><path class="h" d="M49.717,117.983l1.446,1.273,2.309-3.625" transform="translate(-15.611 -115.631)"/><path class="a" d="M37.791,141.949a5.574,5.574,0,0,0-.032.587,5.478,5.478,0,0,0,10.956,0,5.572,5.572,0,0,0-.032-.587Z" transform="translate(-17.198 -112.138)"/></g></svg>