<svg xmlns="http://www.w3.org/2000/svg" width="33.153" height="22.044" viewBox="0 0 33.153 22.044"><defs><style>.a{fill:none ;stroke:#000;stroke-linecap:round;stroke-linejoin:round;}</style></defs><g transform="translate(0.547 0.5)"><path class="a" d="M1705.6,2673h6.008v2.9l-1.452,1.452,3.81,7.106a5.113,5.113,0,0,1,4.172,3.779h-5.8l-4.354,3.627h-8.708l-2.177-2.9h-10.884c-.725-2.177.726-7.255,5.08-7.255h7.7a1.45,1.45,0,0,1,1.359.941l1.824,4.862h4.354c1.481-1.041,2.5-2.236,2.114-3.7l-2.114-6.458V2675.9l-3.629-1.451" transform="translate(-1686.035 -2673)"/><path class="a" d="M1712.806,2873.031a3.629,3.629,0,0,0,7.106.018" transform="translate(-1710.378 -2854.886)"/><path class="a" d="M1957.994,2866.912a3.629,3.629,0,0,0,6.713-1.912" transform="translate(-1933.326 -2847.584)"/><rect class="a" width="8.708" height="3.628" rx="1.814" transform="translate(5.258 5.08)"/></g></svg>
