<svg xmlns="http://www.w3.org/2000/svg" width="34.725" height="33.654" viewBox="0 0 34.725 33.654"><defs><style>.a{fill:none;stroke:#464646;stroke-linecap:round;stroke-linejoin:round;stroke-width:1.5px;}</style></defs><g transform="translate(-67.25 -316.25)"><g transform="translate(68 317)"><path class="a" d="M69,337v9.11a12.326,12.326,0,0,0,12.326,12.326h7.5a12.326,12.326,0,0,0,12.326-12.326V337" transform="translate(-68.464 -326.282)"/><path class="a" d="M73,320.751,75.679,317H98.187l2.679,3.751" transform="translate(-70.32 -317)"/><path class="a" d="M80.325,324h19.828l1.072,3.751H68L69.072,324h4.823" transform="translate(-68 -320.249)"/></g><g transform="translate(72.287 327.816)"><g transform="translate(12.326 8.477)"><path class="a" d="M107.033,353a8.618,8.618,0,0,1-.67,6.209c-1.524,3.106-4.8,4.547-7.361,3.759" transform="translate(-99.002 -353.002)"/><path class="a" d="M103.155,360.582a2.054,2.054,0,1,1-.584-3.065A2.212,2.212,0,0,1,103.155,360.582Z" transform="translate(-99.129 -354.989)"/></g><g transform="translate(11.254 0.438)"><path class="a" d="M108.147,338a5.895,5.895,0,1,1-10.5,0" transform="translate(-97 -338)"/><path class="a" d="M105.215,339.608a1.594,1.594,0,0,0-2.965-.83,1.526,1.526,0,0,0,.49,2.133,1.413,1.413,0,0,0,1.363.218,1.608,1.608,0,1,0,2.222,0,1.414,1.414,0,0,0,1.363-.218,1.632,1.632,0,0,0,.741-1.336,1.608,1.608,0,0,0-3.215.032Z" transform="translate(-99.32 -338)"/></g><path class="a" d="M84.34,337.379a2.148,2.148,0,0,0-3.015,1.384,1.333,1.333,0,0,1-.873.786c-1.426.444-2.958-1.9-4.185-.155a1.813,1.813,0,0,0,.378,2.255l.1.09a1.609,1.609,0,0,1-.039,2.437h0" transform="translate(-76 -337.183)"/><path class="a" d="M112,358.646a6.667,6.667,0,0,0,3.226-.8,2.148,2.148,0,0,0,.884-3.2,1.332,1.332,0,0,1-.039-1.174c.578-1.377,2.9-1.262,2.813-3.1A1.565,1.565,0,0,0,117.359,349" transform="translate(-92.708 -342.667)"/><path class="a" d="M84.634,357.324c.839.632,2.439.966,2.479,1.976.024.483-.288.773-.95,1.407l.029-.018c-.659.63-.975.916-1.457.877-1.418-.124-1.354-3.324-2.849-3.111-.351.056-.742.777-.981,1.043-.994,1.107-1.636,1.159-2.63.038-1.677-1.867-1.1-4.529.778-6.316a5.484,5.484,0,0,1,3.438-1.586" transform="translate(-76.597 -343.889)"/><path class="a" d="M88.483,343l-4.06,7.078a5.3,5.3,0,0,0,7.387-1.3" transform="translate(-79.909 -339.883)"/></g></g></svg>