<svg xmlns="http://www.w3.org/2000/svg" width="31.865" height="30.41" viewBox="0 0 31.865 30.41"><defs><style>.a,.c{fill:none;}.a{stroke:#707070;}.b{fill:#ff9f2f;opacity:0.69;}.c{stroke:#643890;stroke-miterlimit:10;}</style></defs><g transform="translate(-80.666 -149.5)"><path class="a" d="M535.063,111.375" transform="translate(-447 56)"/><path class="b" d="M533.844,101.031V98.219a9.782,9.782,0,0,1,3.609-.692c.129,0-.626-3.3,1.375-3.391s3.6,1.836,3.75,1.828c.7-.7.875-.531,1.5,0,1.5-1,3.953-2.531,5.422-1.172s.625,1.719.656,2.77c1.858,0,3.156,0,3.156,0s.969-.312.875,1.594a8.835,8.835,0,0,0,0,2.125h-2l.219,8.625a9.665,9.665,0,0,1,2.844-1.344,3.627,3.627,0,0,1,3.031,1.344c-1.75,1.563-2.062,1.781-2.062,1.781l.719.875-6.312,5.406-15.031,3.125-2.75,1.938-5.094-7.781,3.219-2.406a6.456,6.456,0,0,1,4.188-1.531c0-3.658.156-10.281.156-10.281Z" transform="translate(-445.75 56.879)"/><g transform="translate(-829.556 1018.467)"><line class="c" y1="8.685" transform="translate(917.838 -861.463)"/><line class="c" y2="7.328" transform="translate(935.149 -861.463)"/><path class="c" d="M1002.227-815.324h-8.089a.741.741,0,0,0-.742.742v2.486h20.294v-2.486a.741.741,0,0,0-.742-.742h-8.089" transform="translate(-77.049 -49.428)"/><g transform="translate(925.178 -861.464)"><line class="c" y1="9.981" transform="translate(0 0)"/><line class="c" y1="9.981" transform="translate(2.631 0)"/></g><rect class="c" width="2.631" height="3.229" transform="translate(925.178 -864.752)"/><path class="c" d="M1155.549-866.692c.447-.359,2.265-1.775,3.161-1.775a1.857,1.857,0,0,1,1.857,1.857v.674" transform="translate(-227.867)"/><path class="c" d="M1054.783-866.692c-.447-.359-2.265-1.775-3.161-1.775a1.858,1.858,0,0,0-1.858,1.857v.674" transform="translate(-129.478)"/><path class="c" d="M1.188,0h0A1.188,1.188,0,0,1,2.376,1.188V2.247a0,0,0,0,1,0,0H0a0,0,0,0,1,0,0V1.188A1.188,1.188,0,0,1,1.188,0Z" transform="translate(925.305 -867.059)"/><g transform="translate(910.556 -853.92)"><path class="c" d="M919.282-613.971l9.675-1.225,0-1.136a1.981,1.981,0,0,0-2.031-1.974l-5.067.128-1.911-.863a3.7,3.7,0,0,0-1.522-.328h-.931a6.535,6.535,0,0,0-4.361,1.668l-2.573,2.306" transform="translate(-910.556 622.234)"/><path class="c" d="M996.623-621.163l.875-.159,4.512-3.4a1.717,1.717,0,0,1,2.189.1l.9.817-6.01,5.5-14.13,2.962a5.3,5.3,0,0,0-2.051.917l-1.708,1.256" transform="translate(-976.262 627.538)"/><path class="c" d="M1249.47-657.294l1.93-1.789-.95-.729c-1.1-.844-2.324-.624-3.715.031l-2.307,1.343" transform="translate(-1221.088 660.361)"/></g></g></g></svg>