<svg xmlns="http://www.w3.org/2000/svg" width="52.017" height="26.42" viewBox="0 0 52.017 26.42"><defs><style>.a{fill:#ff9f2f;}.b{fill:#36b88c;}.c{fill:#28b873;}.d,.e,.f,.g{fill:none;}.e,.f,.g{stroke:#643890;}.e,.g{stroke-width:0.5px;}.f,.g{stroke-miterlimit:10;}.f{stroke-width:0.75px;}.g{stroke-linecap:round;}</style></defs><g transform="translate(-198.67 -367.75)"><g transform="translate(198.67 368)"><g transform="translate(0 0)"><ellipse class="a" cx="2.081" cy="2.081" rx="2.081" ry="2.081" transform="translate(29.131 0)"/><path class="b" d="M706.394,266.059" transform="translate(-663.668 -255.37)"/><path class="c" d="M705.77,257.164a7.143,7.143,0,1,0,7.143,7.143A7.249,7.249,0,0,0,705.77,257.164Zm0,11.848c-.053,0-.108,0-.163,0a6.553,6.553,0,0,0-.823-4.79,19.6,19.6,0,0,0-2.136-3.436,4.705,4.705,0,1,1,3.122,8.226Z" transform="translate(-662.058 -253.526)"/><path class="c" d="M694.8,268.479a5.8,5.8,0,0,1-1.214,2.309c-1.737,2.081-4.866,3.436-7.865,4.136a22.026,22.026,0,0,1-3.493.536,15.984,15.984,0,0,1-4.855-.492c-4.435-1.092-8.67-3.641-11.409-5.19-5.517-3.793-7.864-5.881-14.557-6.008a.161.161,0,0,1-.156-.166.159.159,0,0,1,.029-.087c.885-1.2,2.643-.964,3.253-.964.651,0,.813-1.056,1.706-1.138s5.42,1.949,8.181,2.275a8.131,8.131,0,0,0,6.333-1.706c1.727-1.7,6.273-7.365,11.038-7.365a11.393,11.393,0,0,1,7.829,3.21h0q.32.293.62.593a18.465,18.465,0,0,1,1.6,1.834,19.648,19.648,0,0,1,2.136,3.435A6.557,6.557,0,0,1,694.8,268.479Z" transform="translate(-651.25 -252.47)"/><path class="b" d="M677.1,263.909" transform="translate(-657.597 -254.925)"/><path class="c" d="M685.823,280.186c-4.014-.327-4.422,2.266-4.422,2.266h15.363c-.113-2.505-4.022-2.266-4.022-2.266" transform="translate(-658.488 -258.292)"/><rect class="a" width="17.981" height="1.865" rx="0.626" transform="translate(21.568 24.158)"/><path class="d" d="M682.366,258.821a12.281,12.281,0,0,0,6.12,1.389,13.5,13.5,0,0,0,6.323-1.535" transform="translate(-657.537 -253.84)"/><path class="d" d="M677.783,273.564s15.028,6.691,20.267-3.057" transform="translate(-656.701 -256.09)"/></g><g transform="translate(0.911 0)"><path class="e" d="M22.913,23.934a2.812,2.812,0,0,1,1.937-2.016,52.274,52.274,0,0,1-10.138-4.836C9.2,13.288,6.85,11.2.156,11.072A.159.159,0,0,1,0,10.908a.149.149,0,0,1,.028-.088c.885-1.2,2.643-.964,3.254-.964.652,0,.813-1.056,1.708-1.138s5.418,1.95,8.178,2.275A8.133,8.133,0,0,0,19.5,9.287c1.586-1.557,5.543-6.457,9.866-7.254-.006-.059-.008-.118-.008-.178a1.853,1.853,0,1,1,3.67.365,11.383,11.383,0,0,1,5.34,2.913c.116.1.231.213.344.32a7.116,7.116,0,0,1,5-2.042,7.248,7.248,0,0,1,7.143,7.143,7.143,7.143,0,0,1-7.143,7.141,7.41,7.41,0,0,1-1.014-.071c-.113.161-.233.317-.363.467a13.485,13.485,0,0,1-6.324,3.719c1.056.226,2.206.78,2.266,2.124ZM40.591,7.027a19.682,19.682,0,0,1,2.136,3.436,6.553,6.553,0,0,1,.962,3.7,6.518,6.518,0,0,1-.051,1.1h.075v0a4.706,4.706,0,1,0-3.122-8.227Z" transform="translate(0 0)"/><path class="b" d="M706.394,266.059" transform="translate(-663.667 -255.598)"/><path class="b" d="M677.1,263.909" transform="translate(-657.596 -255.152)"/><rect class="f" width="17.981" height="1.865" rx="0.626" transform="translate(21.568 23.931)"/><path class="g" d="M682.143,258.739a13.184,13.184,0,0,0,6.344,1.471,15.447,15.447,0,0,0,6.813-1.471" transform="translate(-657.537 -254.067)"/><path class="g" d="M677.783,273.564s15.028,6.691,20.267-3.057" transform="translate(-656.7 -256.318)"/></g></g><path class="e" d="M-5010.39-8363.016a15.3,15.3,0,0,1,2.516-.156,7.855,7.855,0,0,1,2.469.375" transform="translate(5238.67 8733.172)"/></g></svg>