<svg xmlns="http://www.w3.org/2000/svg" width="30.615" height="37.029" viewBox="0 0 30.615 37.029"><defs><style>.a,.b,.d{fill:none;}.a,.b,.e{stroke:#643890;stroke-miterlimit:10;}.b{stroke-linecap:round;}.c,.e{fill:#ff9f2f;}</style></defs><g transform="translate(0.5 0.501)"><g transform="translate(0 0)"><path class="a" d="M30.106,23.609V45.888a4.158,4.158,0,0,1-4.169,4.151H15.29s0-4.615,0-10.173c0-3.556,0-7.584,0-10.348,2.092,1.607,4.708,2.093,6.539,3.251a29.959,29.959,0,0,0,0-13.329h4.108A4.162,4.162,0,0,1,30.106,23.609Z" transform="translate(-0.491 -14.011)"/><path class="a" d="M15.357,32.769l4.189-2.208,2.05-1.08.223,12.142v8.417H11.189A4.158,4.158,0,0,1,7.02,45.888V23.609a4.162,4.162,0,0,1,4.169-4.169h4.168a24.194,24.194,0,0,0-.9,6.717A38.053,38.053,0,0,0,15.357,32.769Z" transform="translate(-7.02 -14.011)"/><path class="b" d="M15.791,29.449H9.633a.4.4,0,0,0-.4.4v2.46a3.41,3.41,0,0,0,3.411,3.411H13.5" transform="translate(-5.276 -6.109)"/><rect class="c" width="1.415" height="2.681" rx="0.395" transform="translate(16.123 19.673)"/><rect class="c" width="1.415" height="2.681" rx="0.395" transform="translate(16.123 23.259)"/><rect class="c" width="1.415" height="2.681" rx="0.395" transform="translate(16.123 26.846)"/><path class="d" d="M20.814,18.13l-4.725-.755-3.495,2.768.671,6.459,3.914,4.418,4.7-1.286.447-6.263-.951-4.418Z" transform="translate(-2.62 -15.641)"/><path class="e" d="M18.488,19.389c4.576,0,4.635,4.336,3.35,7.661a15.61,15.61,0,0,1-3.35,4.79l6.454,3.293s4.1-18.222-6.454-18.726c-10.556.5-6.454,18.726-6.454,18.726l6.148-3.293a17.71,17.71,0,0,1-3.044-4.79C13.854,23.725,13.913,19.389,18.488,19.389Z" transform="translate(-3.681 -16.406)"/></g></g></svg>