<svg xmlns="http://www.w3.org/2000/svg" width="46.313" height="33.509" viewBox="0 0 46.313 33.509"><defs><style>.a,.d,.h{fill:#ff9f2f;}.b,.f,.g{fill:none;}.b,.c{stroke:#707070;}.b,.c,.d,.f,.g{stroke-width:0.75px;}.c{fill:#36b88c;}.d,.f,.g,.h{stroke:#643890;}.d,.f{stroke-miterlimit:10;}.e{fill:#28b873;}.h{stroke-width:0.5px;}</style></defs><g transform="translate(0 0.375)"><g transform="translate(0 0)"><g transform="translate(0 0)"><rect class="a" width="3.165" height="8.22" transform="translate(0.871 3.135)"/><path class="a" d="M477.271,187.724h.152v-9.389h-2.93v7.874" transform="translate(-473.622 -175.395)"/><g transform="translate(0 0)"><path class="a" d="M0,0H3.165V10.777H0Z" transform="translate(15.439 0)"/><rect class="a" width="3.165" height="10.777" transform="translate(9.549 0)"/><rect class="a" width="3.165" height="8.342" transform="translate(12.481 3.135)"/><path class="a" d="M500.708,184.729l-3.165,2.2v-8.342h3.165Z" transform="translate(-479.06 -175.454)"/><path class="a" d="M0,0H3.165V8.342H0Z" transform="translate(6.559 3.135)"/><rect class="a" width="3.165" height="11.355" transform="translate(3.678 0)"/><path class="b" d="M510.993,179.879" transform="translate(-482.233 -175.759)"/><path class="a" d="M481.249,185.539V174.487h-2.924v10.224" transform="translate(-474.526 -174.487)"/><rect class="a" width="2.924" height="11.055" transform="translate(9.67 0)"/><rect class="a" width="2.924" height="11.055" transform="translate(15.439 0)"/><path class="a" d="M497.7,188.9V178.335h2.923v7.8" transform="translate(-479.097 -175.395)"/><path class="a" d="M489.963,186.872v-8.537h2.744v8.537" transform="translate(-477.272 -175.395)"/><path class="a" d="M482.154,186.872v-8.537h2.923v8.537" transform="translate(-475.429 -175.395)"/><path class="a" d="M481.251,188.978v-8.786h-2.923v8.574" transform="translate(-474.527 -175.833)"/><path class="a" d="M488.826,187.311v-7.119H485.96l-.057,7.119" transform="translate(-476.314 -175.833)"/><path class="a" d="M493.715,187.311v-7.119h2.923v7.119" transform="translate(-478.157 -175.833)"/><path class="c" d="M503.986,188.59" transform="translate(-480.58 -177.814)"/><path class="d" d="M501.486,176.939" transform="translate(-479.99 -175.065)"/><path class="e" d="M491.353,208.451l-.6,1.627h-14.3l-3.1-23.57h1.99s.793-.249,1.232,1.2a1.556,1.556,0,0,0,1.488,1.1h13.926a1.565,1.565,0,0,0,1.41-.891,2.241,2.241,0,0,1,2.082-1.414l1.446.076-.379,2.557" transform="translate(-473.353 -177.319)"/><path class="e" d="M494.874,200.482v-.81A10.721,10.721,0,0,1,505.59,188.95h5.845a10.727,10.727,0,0,1,10.722,10.722v.876" transform="translate(-478.43 -177.899)"/><path class="e" d="M522.157,209.289V210a5.276,5.276,0,0,1-5.274,5.275H500.149a5.271,5.271,0,0,1-5.275-5.267v-.652" transform="translate(-478.43 -182.697)"/><rect class="a" width="30.22" height="4.221" rx="2.11" transform="translate(14.874 22.509)"/></g></g><g transform="translate(0.844 0)"><path class="f" d="M477.423,186.513v-8.178h-2.93v6.195" transform="translate(-473.622 -175.395)"/><g transform="translate(0 0)"><rect class="f" width="3.165" height="11.435" transform="translate(15.439 0)"/><rect class="f" width="3.165" height="11.355" transform="translate(9.549 0)"/><rect class="f" width="2.725" height="8.342" transform="translate(12.714 3.135)"/><path class="f" d="M500.708,184.634s-.98.224-2,1.978a2.07,2.07,0,0,1-1.17.318v-8.342h3.165Z" transform="translate(-479.06 -175.454)"/><path class="g" d="M0,0H3.165V11.355a11.806,11.806,0,0,1-2.411.119C-.037,11.358,0,10.89,0,10.89Z" transform="translate(3.678 0)"/><path class="b" d="M510.993,179.879" transform="translate(-482.233 -175.759)"/><path class="f" d="M481.249,185.539V174.487h-2.924v10.224" transform="translate(-474.526 -174.487)"/><rect class="f" width="2.924" height="11.475" transform="translate(15.439 0)"/><path class="f" d="M482.154,186.872v-8.537h2.824v8.537" transform="translate(-475.429 -175.395)"/><path class="f" d="M481.251,187.374v-7.182h-2.923v6.561" transform="translate(-474.527 -175.833)"/><path class="f" d="M488.826,187.866v-7.674H485.96l-.057,7.674" transform="translate(-476.314 -176.388)"/><path class="f" d="M493.715,187.311v-7.119h2.923v7.119" transform="translate(-478.157 -175.833)"/><path class="c" d="M503.986,188.59" transform="translate(-480.58 -177.814)"/><path class="d" d="M501.486,176.939" transform="translate(-479.99 -175.065)"/><path class="f" d="M491.353,208.451l-.6,1.627h-14.3l-3.1-23.57h1.99s.793-.249,1.232,1.2a1.556,1.556,0,0,0,1.488,1.1h13.926a1.565,1.565,0,0,0,1.41-.891,2.241,2.241,0,0,1,2.082-1.414l1.446.076-.379,2.557" transform="translate(-473.353 -177.319)"/><path class="f" d="M494.874,200.482v-.81A10.721,10.721,0,0,1,505.59,188.95h5.845a10.727,10.727,0,0,1,10.722,10.722v.876" transform="translate(-478.43 -177.899)"/><path class="f" d="M522.157,209.289V210a5.276,5.276,0,0,1-5.274,5.275H500.149a5.271,5.271,0,0,1-5.275-5.267v-.652" transform="translate(-478.43 -182.697)"/><rect class="f" width="30.22" height="4.221" rx="2.11" transform="translate(14.874 22.509)"/><ellipse class="h" cx="0.723" cy="0.723" rx="0.723" ry="0.723" transform="translate(23.918 17.47)"/><ellipse class="h" cx="0.723" cy="0.723" rx="0.723" ry="0.723" transform="translate(26.469 14.576)"/><ellipse class="h" cx="0.723" cy="0.723" rx="0.723" ry="0.723" transform="translate(31.217 14.575)"/><ellipse class="h" cx="0.723" cy="0.723" rx="0.723" ry="0.723" transform="translate(34.318 17.469)"/><ellipse class="h" cx="0.723" cy="0.723" rx="0.723" ry="0.723" transform="translate(29.118 17.469)"/></g></g></g></g></svg>