<svg xmlns="http://www.w3.org/2000/svg" width="27.911" height="29.167" viewBox="0 0 27.911 29.167"><defs><style>.a{opacity:0.7;}.b{fill:#ff9f2f;}.c{fill:none;stroke:#643890;}</style></defs><g transform="translate(-166.036 -158.5)"><g class="a" transform="translate(166.536 160.42)"><path class="b" d="M902.1,864.214a13,13,0,0,1-5.271-1.074,13.523,13.523,0,0,1-4.267-2.914,13.871,13.871,0,0,1-2.872-4.31,13.241,13.241,0,0,1-1.06-5.285,13.426,13.426,0,0,1,1.059-5.326,14.016,14.016,0,0,1,2.869-4.337,13.406,13.406,0,0,1,4.263-2.928,13.506,13.506,0,0,1,10.558,0,13.4,13.4,0,0,1,7.118,7.25,13.7,13.7,0,0,1,1.045,5.34v11.462a1.867,1.867,0,0,1-.554,1.367,1.839,1.839,0,0,1-1.356.557,1.655,1.655,0,0,1-1.315-.557,2.014,2.014,0,0,1-.484-1.367l-.028-2.008a13.539,13.539,0,0,1-4.309,3.026A13.079,13.079,0,0,1,902.1,864.214Zm-.014-3.71a9.553,9.553,0,0,0,6.968-2.913,10.189,10.189,0,0,0,2.038-10.807,9.77,9.77,0,0,0-2.038-3.151,9.62,9.62,0,0,0-6.968-2.9,9.418,9.418,0,0,0-3.84.782,9.734,9.734,0,0,0-5.153,5.27,9.914,9.914,0,0,0-.754,3.848,9.744,9.744,0,0,0,.754,3.807,10.067,10.067,0,0,0,2.067,3.152,9.692,9.692,0,0,0,3.086,2.133A9.415,9.415,0,0,0,902.086,860.5Z" transform="translate(-888.63 -836.967)"/><circle class="b" cx="1.98" cy="1.98" r="1.98" transform="translate(8.168 7.337)"/></g><g transform="translate(166.536 159)"><path class="c" d="M902.1,864.214a13,13,0,0,1-5.271-1.074,13.523,13.523,0,0,1-4.267-2.914,13.871,13.871,0,0,1-2.872-4.31,13.241,13.241,0,0,1-1.06-5.285,13.426,13.426,0,0,1,1.059-5.326,14.016,14.016,0,0,1,2.869-4.337,13.406,13.406,0,0,1,4.263-2.928,13.506,13.506,0,0,1,10.558,0,13.4,13.4,0,0,1,7.118,7.25,13.7,13.7,0,0,1,1.045,5.34v11.462a1.867,1.867,0,0,1-.554,1.367,1.839,1.839,0,0,1-1.356.557,1.655,1.655,0,0,1-1.315-.557,2.014,2.014,0,0,1-.484-1.367l-.028-2.008a13.539,13.539,0,0,1-4.309,3.026A13.079,13.079,0,0,1,902.1,864.214Zm-.014-3.71a9.553,9.553,0,0,0,6.968-2.913,10.189,10.189,0,0,0,2.038-10.807,9.77,9.77,0,0,0-2.038-3.151,9.62,9.62,0,0,0-6.968-2.9,9.418,9.418,0,0,0-3.84.782,9.734,9.734,0,0,0-5.153,5.27,9.914,9.914,0,0,0-.754,3.848,9.744,9.744,0,0,0,.754,3.807,10.067,10.067,0,0,0,2.067,3.152,9.692,9.692,0,0,0,3.086,2.133A9.415,9.415,0,0,0,902.086,860.5Z" transform="translate(-888.63 -836.967)"/><circle class="c" cx="1.98" cy="1.98" r="1.98" transform="translate(8.168 7.337)"/></g></g></svg>