<svg xmlns="http://www.w3.org/2000/svg" width="42.183" height="35.878" viewBox="0 0 42.183 35.878"><defs><style>.a{fill:#28b873;}.b{fill:#ff9f2f;}.c,.d{fill:none;}.d{stroke:#643890;stroke-linecap:round;stroke-linejoin:round;}</style></defs><g transform="translate(-107 -504.5)"><g transform="translate(-383.067 394.067)"><path class="a" d="M507.275,127.511V118.8l11.3-4.617,5.51-2.251,16.727,6.868v22.467l-16.9,5.043-16.635-5.345v-4.5" transform="translate(-10.197 0)"/><path class="b" d="M543.606,130.23v-6.105l-16.347-6.666-5.327,2.177,16.481,6.382v5.976l3.038-2.6Z" transform="translate(-18.882 -3.274)"/><path class="a" d="M507.275,128.79l16.635,6.059V156.3" transform="translate(-10.197 -9.989)"/><line class="c" y1="2.049" x2="5.89" transform="translate(524.724 118.801)"/><line class="c" y1="2.036" x2="5.679" transform="translate(513.713 122.824)"/><line class="c" x2="14.088" transform="translate(490.067 127.685)"/><line class="c" x2="14.088" transform="translate(494.165 132.066)"/><line class="c" x2="14.088" transform="translate(490.067 136.466)"/></g><g transform="translate(-382.067 393.067)"><path class="d" d="M507.275,127.511V118.8l11.3-4.617,5.51-2.251,16.727,6.868v22.467l-16.9,5.043-16.635-5.345v-4.5" transform="translate(-10.197 0)"/><path class="d" d="M543.606,130.23v-6.105l-16.347-6.666-5.327,2.177,16.481,6.382v5.976l3.038-2.6Z" transform="translate(-18.882 -3.274)"/><path class="d" d="M507.275,128.79l16.635,6.059V156.3" transform="translate(-10.197 -9.989)"/><line class="d" y1="2.049" x2="5.89" transform="translate(524.724 118.801)"/><line class="d" y1="2.036" x2="5.679" transform="translate(513.713 122.824)"/><line class="d" x2="14.088" transform="translate(490.067 127.685)"/><line class="d" x2="14.088" transform="translate(494.165 132.066)"/><line class="d" x2="14.088" transform="translate(490.067 136.466)"/></g></g></svg>