<svg xmlns="http://www.w3.org/2000/svg" width="43.064" height="39.544" viewBox="0 0 43.064 39.544"><defs><style>.a,.d{fill:none;}.b{fill:#28b873;}.c,.e{fill:#ff9f2f;}.d,.e{stroke:#643890;stroke-linecap:round;stroke-linejoin:round;}</style></defs><g transform="translate(-183 -456.423)"><line class="a" x1="18.699" y2="5.987" transform="translate(205.648 484.611)"/><g transform="translate(183 457)"><path class="a" d="M-2092.211,431.589l8.257,1.426,9.835,29.935" transform="translate(2092.211 -431.589)"/><path class="b" d="M-1929.989,546.484l-5.557-17.372-19.293,6.119,5.626,17.876Z" transform="translate(1968.629 -518.301)"/><path class="b" d="M-1990.534,439.527l6.208-2.034,9.333-3.033,4.133,12.8-15.329,5.064Z" transform="translate(2000.396 -434.143)"/><path class="a" d="M-1939.911,446.439l.925,2.708-5.044,1.633-.865-2.721" transform="translate(1961.228 -444.793)"/><path class="a" d="M-1895.73,544.531l.924,2.708-7.228,2.284-.865-2.721" transform="translate(1924.044 -532.01)"/><circle class="c" cx="3.642" cy="3.642" r="3.642" transform="translate(15.577 31.183)"/></g><g transform="translate(184.088 457)"><g transform="translate(0 0)"><path class="d" d="M-2092.211,431.589l8.257,1.426,9.835,29.935" transform="translate(2092.211 -431.589)"/><line class="d" x1="18.699" y2="5.987" transform="translate(22.648 27.611)"/><circle class="d" cx="3.642" cy="3.642" r="3.642" transform="translate(15.577 31.183)"/><path class="e" d="M-1939.911,446.439l.925,2.708-5.044,1.633-.865-2.721" transform="translate(1961.228 -444.793)"/><path class="e" d="M-1895.73,544.531l.924,2.708-7.228,2.284-.865-2.721" transform="translate(1923.886 -532.01)"/><line class="d" y1="0.657" x2="2.065" transform="translate(23.988 10.072)"/><line class="d" x1="2.15" y2="0.707" transform="translate(29.847 26.903)"/><line class="d" x1="2.15" y2="0.707" transform="translate(33.292 25.746)"/><path class="d" d="M-1989.092,439l4.639-1.507,9.333-3.033,3.836,11.735" transform="translate(2000.524 -434.142)"/><path class="d" d="M-1953.366,534.827l17.69-5.715,5.091,15.939" transform="translate(1968.759 -518.301)"/></g></g></g></svg>