<svg xmlns="http://www.w3.org/2000/svg" xmlns:xlink="http://www.w3.org/1999/xlink" width="22.464" height="34.533" viewBox="0 0 22.464 34.533"><defs><style>.a,.c{fill:url(#a);}.b{fill:#fff;}.c,.g{stroke:#999;}.c,.e,.f,.g{stroke-linecap:round;}.c,.f,.g{stroke-linejoin:round;}.d,.e,.f,.g{fill:none;}.d,.e,.f{stroke:#643890;}</style><linearGradient id="a" x1="0.5" y1="-0.707" x2="0.5" y2="1.341" gradientUnits="objectBoundingBox"><stop offset="0" stop-color="#fff29f"/><stop offset="1" stop-color="#ff9500"/></linearGradient></defs><g transform="translate(-129.768 -214.656)"><g transform="translate(-27 1.344)"><g transform="translate(157.268 226.38)"><g transform="translate(0 0)"><ellipse class="a" cx="10.732" cy="10.732" rx="10.732" ry="10.732" transform="translate(0 0)"/></g><path class="b" d="M735.589,1856.682a7.177,7.177,0,0,1-6.911-5.272c-.194-.708-.031-1.409,1.063-1.409h11.7c1.094,0,1.257.7,1.063,1.409A7.177,7.177,0,0,1,735.589,1856.682Z" transform="translate(-724.855 -1839.638)"/></g><g transform="translate(159.833 215.156)"><path class="a" d="M41.479-38.791a1.5,1.5,0,0,1-1.5,1.5,1.5,1.5,0,0,1-1.5-1.5,1.5,1.5,0,0,1,1.5-1.5A1.5,1.5,0,0,1,41.479-38.791Z" transform="translate(-38.473 43.301)"/><path class="a" d="M86.375-38.791a1.5,1.5,0,0,0,1.5,1.5,1.5,1.5,0,0,0,1.5-1.5,1.5,1.5,0,0,0-1.5-1.5A1.5,1.5,0,0,0,86.375-38.791Z" transform="translate(-73.048 43.301)"/><path class="a" d="M63.927-48.094a1.5,1.5,0,0,1-1.5-1.5,1.5,1.5,0,0,1,1.5-1.5,1.5,1.5,0,0,1,1.5,1.5A1.5,1.5,0,0,1,63.927-48.094Z" transform="translate(-55.76 51.1)"/><path class="c" d="M47.147-30.676" transform="translate(-44.734 36.358)"/><path class="a" d="M44.135-37.894l-.266.125,1.25,6.984a14.794,14.794,0,0,1,5.536-1.085,15.446,15.446,0,0,1,5.417,1.085l1.25-7.109.188-1.375c-.417-.093-.87,1.067-1.156.75l-.156.125-2.975,2.166-2.047-4.348-.15-.4c-.371.075-.113.213-.484.141l-.391-.141-2.2,4.744L45.175-38.16h0C44.933-37.852,44.517-37.978,44.135-37.894Z" transform="translate(-42.421 43.504)"/></g></g><g transform="translate(130.268 226.38)"><path class="d" d="M735.589,1856.682a7.177,7.177,0,0,1-6.911-5.272c-.194-.708-.031-1.409,1.063-1.409h11.7c1.094,0,1.257.7,1.063,1.409A7.177,7.177,0,0,1,735.589,1856.682Z" transform="translate(-724.855 -1839.638)"/><g transform="translate(0 0)"><ellipse class="d" cx="10.732" cy="10.732" rx="10.732" ry="10.732" transform="translate(0 0)"/><g transform="translate(3.354 5.179)"><g transform="translate(0 0)"><path class="e" d="M.484,1.864A2.975,2.975,0,0,1,3.255.5,2.712,2.712,0,0,1,5.625,2.167" transform="translate(-0.484 -0.485)"/><path class="e" d="M5.625,1.864A2.975,2.975,0,0,0,2.855.5,2.712,2.712,0,0,0,.484,2.167" transform="translate(8.29 -0.485)"/></g></g></g></g><g transform="translate(132.833 215.156)"><path class="f" d="M41.479-38.791a1.5,1.5,0,0,1-1.5,1.5,1.5,1.5,0,0,1-1.5-1.5,1.5,1.5,0,0,1,1.5-1.5A1.5,1.5,0,0,1,41.479-38.791Z" transform="translate(-38.473 43.301)"/><path class="f" d="M86.375-38.791a1.5,1.5,0,0,0,1.5,1.5,1.5,1.5,0,0,0,1.5-1.5,1.5,1.5,0,0,0-1.5-1.5A1.5,1.5,0,0,0,86.375-38.791Z" transform="translate(-73.048 43.301)"/><path class="f" d="M63.927-48.094a1.5,1.5,0,0,1-1.5-1.5,1.5,1.5,0,0,1,1.5-1.5,1.5,1.5,0,0,1,1.5,1.5A1.5,1.5,0,0,1,63.927-48.094Z" transform="translate(-55.76 51.1)"/><path class="g" d="M47.147-30.676" transform="translate(-44.734 36.358)"/><path class="f" d="M44.242-37.491l-.3.1,1.176,6.6a11.179,11.179,0,0,1,5.5-1.543,11.822,11.822,0,0,1,5.458,1.543l1.164-6.67L57-37.512a1.92,1.92,0,0,1-1.033-.622l-.037.026-2.705,1.881-2.047-4.348h0a1.974,1.974,0,0,1-.921.078l-.273-.036-2.028,4.305L45.175-38.16h0A1.714,1.714,0,0,1,44.242-37.491Z" transform="translate(-42.421 43.504)"/></g></g></svg>