<svg xmlns="http://www.w3.org/2000/svg" width="22.464" height="23.309" viewBox="0 0 22.464 23.309"><defs><style>.a{opacity:0.7;}.b{fill:#ff9f2f;}.c,.d{fill:none;stroke:#643890;}.d{stroke-linecap:round;}</style></defs><g transform="translate(-185.768 -225.88)"><g class="a" transform="translate(29 1.344)"><g transform="translate(157.268 226.38)"><g transform="translate(0 0)"><ellipse class="b" cx="10.732" cy="10.732" rx="10.732" ry="10.732" transform="translate(0 0)"/></g><path class="b" d="M735.589,1856.682a7.177,7.177,0,0,1-6.911-5.272c-.194-.708-.031-1.409,1.063-1.409h11.7c1.094,0,1.257.7,1.063,1.409A7.177,7.177,0,0,1,735.589,1856.682Z" transform="translate(-724.855 -1839.638)"/></g></g><g transform="translate(186.268 226.38)"><path class="c" d="M735.589,1856.682a7.177,7.177,0,0,1-6.911-5.272c-.194-.708-.031-1.409,1.063-1.409h11.7c1.094,0,1.257.7,1.063,1.409A7.177,7.177,0,0,1,735.589,1856.682Z" transform="translate(-724.855 -1839.638)"/><g transform="translate(0 0)"><ellipse class="c" cx="10.732" cy="10.732" rx="10.732" ry="10.732" transform="translate(0 0)"/><g transform="translate(3.354 5.179)"><g transform="translate(0 0)"><path class="d" d="M.484,1.864A2.975,2.975,0,0,1,3.255.5,2.712,2.712,0,0,1,5.625,2.167" transform="translate(-0.484 -0.485)"/><path class="d" d="M5.625,1.864A2.975,2.975,0,0,0,2.855.5,2.712,2.712,0,0,0,.484,2.167" transform="translate(8.29 -0.485)"/></g></g></g></g></g></svg>