<svg xmlns="http://www.w3.org/2000/svg" width="37.005" height="33.727" viewBox="0 0 37.005 33.727"><defs><style>.a{fill:#ff9f2f;}.b,.d,.e,.f,.g,.h,.i{fill:none;}.b{stroke:#28b873;}.b,.f,.i{stroke-linecap:round;}.b,.e,.f,.h,.i{stroke-miterlimit:10;}.b,.f{stroke-width:1.5px;}.c{fill:#28b873;}.e,.f,.i{stroke:#643890;}.g,.h{stroke:#ff9f2f;}</style></defs><g transform="translate(0.75 0.75)"><g transform="translate(0 0.844)"><g transform="translate(9.284 27.135)"><g transform="translate(0 0)"><ellipse class="a" cx="2.499" cy="2.499" rx="2.499" ry="2.499"/><ellipse class="a" cx="2.499" cy="2.499" rx="2.499" ry="2.499" transform="translate(17.138)"/></g></g><path class="b" d="M506.368,271.773H486.427a3.57,3.57,0,0,1-3.5-2.85l-4.119-20a1.784,1.784,0,0,0-1.748-1.425h-2.83" transform="translate(-474.234 -247.495)"/><path class="c" d="M484.112,252.433H510.1a1.788,1.788,0,0,1,1.747,2.153L509.7,264.763a1.786,1.786,0,0,1-1.515,1.4l-20.5,2.692" transform="translate(-476.97 -248.863)"/><path class="d" d="M484.112,252.433H510.1a1.788,1.788,0,0,1,1.747,2.153L509.7,264.763a1.786,1.786,0,0,1-1.515,1.4l-20.5,2.692" transform="translate(-476.97 -248.863)"/></g><g transform="translate(0.844 0)"><g transform="translate(9.284 27.135)"><g transform="translate(0 0)"><ellipse class="e" cx="2.499" cy="2.499" rx="2.499" ry="2.499"/><ellipse class="e" cx="2.499" cy="2.499" rx="2.499" ry="2.499" transform="translate(17.138)"/></g></g><path class="f" d="M506.368,271.773H486.427a3.57,3.57,0,0,1-3.5-2.85l-4.119-20a1.784,1.784,0,0,0-1.748-1.425h-2.83" transform="translate(-474.234 -247.495)"/><path class="d" d="M484.112,252.433H510.1a1.788,1.788,0,0,1,1.747,2.153L509.7,264.763a1.786,1.786,0,0,1-1.515,1.4l-20.5,2.692" transform="translate(-476.97 -248.863)"/><path class="g" d="M.223,14.941,0,0" transform="translate(20.65 3.601)"/><line class="h" y1="14.151" transform="translate(27.791 3.601)"/><path class="g" d="M0,15.709V0" transform="translate(13.51 3.601)"/><path class="i" d="M484.112,252.433H510.1a1.788,1.788,0,0,1,1.747,2.153L509.7,264.763a1.786,1.786,0,0,1-1.515,1.4l-20.5,2.692" transform="translate(-476.97 -248.863)"/></g></g></svg>