<svg xmlns="http://www.w3.org/2000/svg" width="32.733" height="26.645" viewBox="0 0 32.733 26.645"><defs><style>.a{opacity:0.7;}.b{fill:#ff9f2f;}.c{fill:none;stroke:#643890;stroke-linecap:round;stroke-linejoin:round;}</style></defs><g transform="translate(-144.142 -309.495)"><g transform="translate(111.521 107.163)"><g transform="translate(38.998 211.304)"><g class="a"><rect class="b" width="25.856" height="17.673" rx="3.284"/></g></g><g transform="translate(33.16 203.837)"><g class="a" transform="translate(0)"><path class="b" d="M37.833,226.561a1.557,1.557,0,0,1-1.068-1.11l-3.558-14.125a1.558,1.558,0,0,1,1.127-1.886l22.059-5.556a1.558,1.558,0,0,1,1.886,1.127l1.192,4.731L41.954,210a3.65,3.65,0,0,0-4.121,3.887" transform="translate(-33.16 -203.837)"/><path class="b" d="M67.089,213.614l9.647-2.43.473,1.876" transform="translate(-51.037 -207.708)"/><path class="b" d="M37.877,226.348l-2.513.633-.879-3.491,3.718-.937" transform="translate(-33.858 -213.699)"/></g></g></g><g transform="translate(111.521 106.163)"><g transform="translate(38.998 211.304)"><rect class="c" width="25.856" height="17.673" rx="3.284"/><rect class="c" width="25.856" height="3.6" transform="translate(0 3.927)"/><line class="c" x2="8.326" transform="translate(2.153 10.76)"/><path class="c" d="M90.384,247.173a1.567,1.567,0,1,1-1.567-1.567A1.567,1.567,0,0,1,90.384,247.173Z" transform="translate(-67.499 -233.312)"/></g><g transform="translate(33.16 203.837)"><g transform="translate(0)"><path class="c" d="M37.833,226.561a1.557,1.557,0,0,1-1.068-1.11l-3.558-14.125a1.558,1.558,0,0,1,1.127-1.886l22.059-5.556a1.558,1.558,0,0,1,1.886,1.127l1.192,4.731" transform="translate(-33.16 -203.837)"/><path class="c" d="M67.089,213.614l9.647-2.43.473,1.876" transform="translate(-51.037 -207.708)"/><path class="c" d="M37.877,226.348l-2.513.633-.879-3.491,3.718-.937" transform="translate(-33.858 -213.699)"/></g></g></g></g></svg>