<svg xmlns="http://www.w3.org/2000/svg" width="33.237" height="33.088" viewBox="0 0 33.237 33.088"><defs><style>.a{fill:#28b873;}.b{fill:#fff;}.c,.d,.e,.g,.h{fill:none;}.c,.d{stroke:#ff9f2f;}.c,.d,.e,.g,.h,.i{stroke-linecap:round;}.c,.f,.g{stroke-miterlimit:10;}.e{stroke-linejoin:round;}.f,.i{fill:#ff9f2f;}.f,.g,.h,.i{stroke:#643890;}.f{stroke-width:0.75px;}.i{stroke-width:0.5px;}.j,.k{stroke:none;}.k{fill:#643890;}</style></defs><g transform="translate(0.09 0.666)"><g transform="translate(0 0)"><g transform="translate(0 0)"><g transform="translate(0 0.844)"><path class="a" d="M651.1,369.074a2.238,2.238,0,0,1-1.783-.875l-2.618-3.386a.947.947,0,0,0-.885-.357l-3.974.583a2.254,2.254,0,0,1-2.548-2.615l.682-3.934a.941.941,0,0,0-.371-.923l-3.338-2.457a2.253,2.253,0,0,1-.028-3.609l3.308-2.514a.946.946,0,0,0,.363-.89l-.6-4.112a2.254,2.254,0,0,1,2.466-2.569l4.264.449a.943.943,0,0,0,.836-.347l2.475-3.069a2.254,2.254,0,0,1,3.509,0l2.475,3.069a.942.942,0,0,0,.835.347l4.264-.449a2.254,2.254,0,0,1,2.466,2.569l-.6,4.112a.946.946,0,0,0,.363.89l3.308,2.514a2.253,2.253,0,0,1-.028,3.609l-3.338,2.457a.941.941,0,0,0-.371.923l.682,3.934a2.254,2.254,0,0,1-2.548,2.615l-3.974-.583a.947.947,0,0,0-.886.357l-2.618,3.386A2.239,2.239,0,0,1,651.1,369.074Z" transform="translate(-635.342 -337.61)"/></g><g transform="translate(9.548 8.988)"><g transform="translate(0 0)"><path class="b" d="M657.86,363.259a2.433,2.433,0,1,1,2.421-2.688h0a2.434,2.434,0,0,1-2.421,2.688Z" transform="translate(-655.429 -358.393)"/></g><g transform="translate(9.161 8.039)"><path class="b" d="M680.547,383.274a2.5,2.5,0,1,1,2.5-2.768h0a2.5,2.5,0,0,1-2.228,2.754A2.574,2.574,0,0,1,680.547,383.274Z" transform="translate(-678.047 -378.264)"/></g></g><line class="c" y1="2.977" x2="1.41" transform="translate(21.918)"/><line class="c" y1="1.508" x2="2.929" transform="translate(29.421 9.115)"/><path class="d" d="M0-1,2.929.508" transform="translate(29.545 22.021)"/><line class="c" x2="1.41" y2="2.977" transform="translate(21.833 28.779)"/><line class="c" x1="1.41" y2="2.977" transform="translate(9.815 28.779)"/><line class="c" x1="2.929" y2="1.508" transform="translate(0.583 21.021)"/><line class="c" x1="2.929" y1="1.508" transform="translate(0.583 8.876)"/><line class="c" x1="1.41" y1="2.977" transform="translate(9.815)"/><path class="b" d="M.5,0a.5.5,0,0,1,.5.5V16.381a.5.5,0,0,1-.993,0V.5A.5.5,0,0,1,.5,0Z" transform="matrix(0.777, 0.629, -0.629, 0.777, 21.766, 8.467)"/></g><g transform="translate(0.583 0)"><g transform="translate(0.261)"><g class="e" transform="translate(-635.342 -337.61)"><path class="j" d="M651.1,369.074a2.238,2.238,0,0,1-1.783-.875l-2.618-3.386a.947.947,0,0,0-.885-.357l-3.974.583a2.254,2.254,0,0,1-2.548-2.615l.682-3.934a.941.941,0,0,0-.371-.923l-3.338-2.457a2.253,2.253,0,0,1-.028-3.609l3.308-2.514a.946.946,0,0,0,.363-.89l-.6-4.112a2.254,2.254,0,0,1,2.466-2.569l4.264.449a.943.943,0,0,0,.836-.347l2.475-3.069a2.254,2.254,0,0,1,3.509,0l2.475,3.069a.942.942,0,0,0,.835.347l4.264-.449a2.254,2.254,0,0,1,2.466,2.569l-.6,4.112a.946.946,0,0,0,.363.89l3.308,2.514a2.253,2.253,0,0,1-.028,3.609l-3.338,2.457a.941.941,0,0,0-.371.923l.682,3.934a2.254,2.254,0,0,1-2.548,2.615l-3.974-.583a.947.947,0,0,0-.886.357l-2.618,3.386A2.239,2.239,0,0,1,651.1,369.074Z"/><path class="k" d="M 651.0950317382813 368.32373046875 C 651.5639038085938 368.32373046875 651.9974365234375 368.1108703613281 652.2843017578125 367.7397766113281 L 654.902587890625 364.35302734375 C 655.2217407226563 363.9410400390625 655.7232055664063 363.6950988769531 656.2439575195313 363.6950988769531 C 656.3263549804688 363.6950988769531 656.409423828125 363.7012023925781 656.4901733398438 363.7131042480469 L 660.46435546875 364.2960510253906 C 660.5399169921875 364.30712890625 660.6161499023438 364.312744140625 660.691162109375 364.312744140625 C 661.0938720703125 364.3127136230469 661.4732055664063 364.1510314941406 661.7592163085938 363.8574829101563 C 662.099609375 363.5081481933594 662.2471313476563 363.0320129394531 662.1641235351563 362.5516052246094 L 661.4818725585938 358.6178894042969 C 661.3715209960938 357.9804382324219 661.6265869140625 357.3461303710938 662.147705078125 356.9624938964844 L 665.4855346679688 354.5053405761719 C 665.8710327148438 354.2217102050781 666.0941162109375 353.7846069335938 666.09765625 353.30615234375 C 666.1011962890625 352.8274230957031 665.8848266601563 352.3869018554688 665.5039672851563 352.0975341796875 L 662.195068359375 349.5828552246094 C 661.7037353515625 349.2087097167969 661.454345703125 348.5970458984375 661.5441284179688 347.987060546875 L 662.1470947265625 343.8747253417969 C 662.2151489257813 343.4122314453125 662.0681762695313 342.953125 661.7438354492188 342.6151733398438 C 661.4576416015625 342.3169555664063 661.07421875 342.1527404785156 660.6641845703125 342.1527404785156 C 660.6105346679688 342.1527404785156 660.5559692382813 342.1556091308594 660.5020751953125 342.1612854003906 L 656.2380981445313 342.6102905273438 C 656.1786499023438 342.6165771484375 656.1183471679688 342.6197509765625 656.0588989257813 342.6197509765625 C 655.5446166992188 342.6197509765625 655.0640258789063 342.3895874023438 654.7403564453125 341.98828125 L 652.2651977539063 338.9196166992188 C 651.9784545898438 338.56396484375 651.5519409179688 338.3599853515625 651.0950317382813 338.3599853515625 C 650.6381225585938 338.3599853515625 650.2113037109375 338.5640869140625 649.9242553710938 338.9197082519531 L 647.4497680664063 341.9881286621094 C 647.126220703125 342.3894653320313 646.645263671875 342.6196594238281 646.130126953125 342.6196594238281 C 646.071044921875 342.6196594238281 646.01123046875 342.6165161132813 645.9517211914063 342.6103210449219 L 641.6878051757813 342.1613159179688 C 641.634033203125 342.1557006835938 641.57958984375 342.15283203125 641.5260620117188 342.15283203125 C 641.11572265625 342.15283203125 640.7319946289063 342.3171081542969 640.4456787109375 342.615234375 C 640.12158203125 342.9529113769531 639.9746704101563 343.4121398925781 640.04248046875 343.8750915527344 L 640.6453857421875 347.9866333007813 C 640.7352294921875 348.5970153808594 640.4857788085938 349.2086791992188 639.9938354492188 349.5833129882813 L 636.685546875 352.0975646972656 C 636.3047485351563 352.3869323730469 636.08837890625 352.8274230957031 636.0919189453125 353.3056335449219 C 636.095703125 353.78466796875 636.31884765625 354.221923828125 636.7042846679688 354.5054321289063 L 640.042236328125 356.9625244140625 C 640.5630493164063 357.3459167480469 640.8180541992188 357.9801940917969 640.7076416015625 358.6179809570313 L 640.02587890625 362.5515441894531 C 639.942626953125 363.0321655273438 640.0900268554688 363.5081787109375 640.4302978515625 363.8574829101563 C 640.7163696289063 364.1510925292969 641.095703125 364.312744140625 641.4984741210938 364.312744140625 C 641.5736083984375 364.312744140625 641.6500854492188 364.30712890625 641.7257690429688 364.2960205078125 L 645.699951171875 363.7130737304688 C 645.7809448242188 363.7012329101563 645.863525390625 363.6952209472656 645.9453735351563 363.6952209472656 C 646.4668579101563 363.6952209472656 646.9685668945313 363.9413146972656 647.287353515625 364.3536071777344 L 649.9053344726563 367.7397766113281 C 650.1921997070313 368.1109008789063 650.6258544921875 368.32373046875 651.0950317382813 368.32373046875 M 651.0950317382813 369.07373046875 C 650.3916015625 369.07373046875 649.7417602539063 368.7544860839844 649.3119506835938 368.198486328125 L 646.6940307617188 364.8123474121094 C 646.5136108398438 364.5790405273438 646.2355346679688 364.4451904296875 645.9453735351563 364.4451904296875 C 645.8999633789063 364.4451904296875 645.8543090820313 364.448486328125 645.80859375 364.4551696777344 L 641.8345947265625 365.0380859375 C 641.721923828125 365.0545959472656 641.6096801757813 365.062744140625 641.4984741210938 365.062744140625 C 640.8953247070313 365.062744140625 640.323974609375 364.8230895996094 639.8931274414063 364.380859375 C 639.3828735351563 363.8571166992188 639.1620483398438 363.1439514160156 639.2869262695313 362.4234619140625 L 639.9686889648438 358.4898986816406 C 640.0302124023438 358.1343078613281 639.88818359375 357.7804260253906 639.5975952148438 357.5664978027344 L 636.2596435546875 355.1094360351563 C 635.6819458007813 354.6844787597656 635.34765625 354.0289001464844 635.3419189453125 353.3116455078125 C 635.3366088867188 352.5943908691406 635.6607055664063 351.9343566894531 636.2318115234375 351.5003967285156 L 639.5400390625 348.9861755371094 C 639.8139038085938 348.7776184082031 639.9535522460938 348.4367065429688 639.9033813476563 348.0958557128906 L 639.3004150390625 343.9839172363281 C 639.19873046875 343.2899169921875 639.4187622070313 342.6020812988281 639.9046020507813 342.0958862304688 C 640.3343505859375 341.6484069824219 640.9150390625 341.40283203125 641.5260620117188 341.40283203125 C 641.6056518554688 341.40283203125 641.6856079101563 341.406982421875 641.7659912109375 341.4154052734375 L 646.0302734375 341.8644409179688 C 646.0636596679688 341.867919921875 646.0969848632813 341.8696594238281 646.130126953125 341.8696594238281 C 646.4149780273438 341.8696594238281 646.6845092773438 341.7423400878906 646.8658447265625 341.5174255371094 L 649.3404541015625 338.4488830566406 C 649.770751953125 337.915771484375 650.4100341796875 337.6099853515625 651.0950317382813 337.6099853515625 C 651.779541015625 337.6099853515625 652.4192504882813 337.915771484375 652.8490600585938 338.4488830566406 L 655.3240966796875 341.5174255371094 C 655.50537109375 341.7421569824219 655.7745361328125 341.8697509765625 656.0588989257813 341.8697509765625 C 656.0922241210938 341.8697509765625 656.125732421875 341.8679809570313 656.1593627929688 341.8644409179688 L 660.4235229492188 341.4154052734375 C 660.5040283203125 341.4069213867188 660.5844116210938 341.4027404785156 660.6641845703125 341.4027404785156 C 661.2750854492188 341.4027404785156 661.8556518554688 341.6485290527344 662.2849731445313 342.0958862304688 C 662.770751953125 342.6020812988281 662.9912109375 343.2899169921875 662.8890991210938 343.9839172363281 L 662.2861938476563 348.0958557128906 C 662.2360229492188 348.4367065429688 662.3756103515625 348.7776184082031 662.6494750976563 348.9861755371094 L 665.957763671875 351.5003967285156 C 666.5288696289063 351.9343566894531 666.8529052734375 352.5943908691406 666.84765625 353.3116455078125 C 666.8423461914063 354.0289001464844 666.507568359375 354.6844787597656 665.9299926757813 355.1094360351563 L 662.5923461914063 357.5664978027344 C 662.3017578125 357.7804260253906 662.1593017578125 358.1343078613281 662.2208862304688 358.4898986816406 L 662.903076171875 362.4234619140625 C 663.027587890625 363.1439514160156 662.8067016601563 363.8571166992188 662.2964477539063 364.380859375 C 661.8656005859375 364.8230590820313 661.2938842773438 365.0627136230469 660.691162109375 365.062744140625 C 660.5800170898438 365.062744140625 660.4679565429688 365.0546264648438 660.3554077148438 365.0380859375 L 656.38134765625 364.4551696777344 C 656.33544921875 364.4483947753906 656.28955078125 364.4450988769531 656.2439575195313 364.4450988769531 C 655.9539184570313 364.4450988769531 655.6761474609375 364.5791625976563 655.4954833984375 364.8123474121094 L 652.877685546875 368.198486328125 C 652.4478149414063 368.7544860839844 651.7979125976563 369.07373046875 651.0950317382813 369.07373046875 Z"/></g></g><g transform="translate(8.964 8.988)"><g transform="translate(0 0)"><path class="f" d="M657.86,363.259a2.433,2.433,0,1,1,2.421-2.688h0a2.434,2.434,0,0,1-2.421,2.688Z" transform="translate(-655.429 -358.393)"/></g><g transform="translate(9.161 8.039)"><path class="f" d="M680.547,383.274a2.5,2.5,0,1,1,2.5-2.768h0a2.5,2.5,0,0,1-2.228,2.754A2.574,2.574,0,0,1,680.547,383.274Z" transform="translate(-678.047 -378.264)"/></g></g><line class="g" y1="2.977" x2="1.41" transform="translate(21.335 0)"/><line class="g" y1="1.508" x2="2.929" transform="translate(28.838 9.115)"/><path class="h" d="M0-1,2.929.508" transform="translate(28.962 22.022)"/><line class="g" x2="1.41" y2="2.977" transform="translate(21.249 28.779)"/><line class="g" x1="1.41" y2="2.977" transform="translate(9.231 28.779)"/><line class="g" x1="2.929" y2="1.508" transform="translate(0 21.022)"/><line class="g" x1="2.929" y1="1.508" transform="translate(0 8.876)"/><line class="g" x1="1.41" y1="2.977" transform="translate(9.231 0)"/><path class="i" d="M.5,0a.5.5,0,0,1,.5.5V16.381a.5.5,0,0,1-.993,0V.5A.5.5,0,0,1,.5,0Z" transform="matrix(0.777, 0.629, -0.629, 0.777, 21.183, 8.468)"/></g></g></g></svg>