<svg xmlns="http://www.w3.org/2000/svg" width="29.615" height="36.141" viewBox="0 0 29.615 36.141"><defs><style>.a{fill:#28b873;}.b{fill:none;stroke:#383838;stroke-miterlimit:10;}</style></defs><g transform="translate(0 0)"><g transform="translate(0 0)"><path class="a" d="M30.106,23.609V45.888a4.158,4.158,0,0,1-4.169,4.151H15.29V19.44H25.937A4.162,4.162,0,0,1,30.106,23.609Z" transform="translate(-0.491 -13.898)"/><path class="a" d="M23.477,19.44v30.6H11.189A4.158,4.158,0,0,1,7.02,45.888V23.609a4.162,4.162,0,0,1,4.169-4.169Z" transform="translate(-7.02 -13.898)"/><line class="b" y1="0.662" transform="translate(14.799 4.88)"/><path class="a" d="M20.814,18.13l-4.725-.755-3.495,2.768.671,6.459,3.914,4.418,4.7-1.286.447-6.263-.951-4.418Z" transform="translate(-2.62 -15.528)"/><path class="a" d="M18.476,19.4c4.576,0,4.635,4.336,3.35,7.661a12.17,12.17,0,0,1-2.97,4.277l6.075,3.806s4.379-19.312-6.075-18.83c-10.556.5-6.834,18.83-6.834,18.83L18.1,31.335a12.171,12.171,0,0,1-2.97-4.277C13.842,23.734,13.9,19.4,18.476,19.4Z" transform="translate(-3.669 -16.302)"/></g></g></svg>