<svg xmlns="http://www.w3.org/2000/svg" width="34.911" height="31.678" viewBox="0 0 34.911 31.678"><defs><style>.a{fill:none;stroke:#464646;stroke-linecap:round;stroke-linejoin:round;stroke-width:1.5px;}</style></defs><g transform="translate(-519.251 -318.25)"><path class="a" d="M561.38,341.291a4.823,4.823,0,0,0-.844-5.124c-.888-.992-6.848-4.85-9-6.467-3.772-2.695-9.2-8.582-10.068-9.161a3.221,3.221,0,0,0-3.335-.141" transform="translate(-8.358 -0.461)"/><path class="a" d="M547.484,352.406c-14.186,0-27.335-11.189-27.483-22.972A3.352,3.352,0,0,1,523.279,326a3.219,3.219,0,0,1,2.111.823c1.078.793,4.85,10.493,12.934,14.266,0,0,3.555,1.616,6.41,2.6a2.16,2.16,0,0,1,1.357,2.669A5.56,5.56,0,0,0,547.484,352.406Z" transform="translate(0 -3.228)"/><g transform="translate(524.78 319)"><path class="a" d="M553.771,347.432a4.852,4.852,0,0,0,3.73-4.72c0-2.679-2.156-4.85-7.006-8.083-10.239-7.006-16.2-14.51-17.074-15.089a3.234,3.234,0,0,0-4.553,1.018" transform="translate(-528.869 -319)"/><path class="a" d="M535.461,325.468c.576.691.284,1.751.706,2.538a2.467,2.467,0,0,0,1.677,1.089,15.193,15.193,0,0,0,1.732.227,1.885,1.885,0,0,1,1.231.521,1.651,1.651,0,0,1,.344.8,11.925,11.925,0,0,1,.075,1.847,3.062,3.062,0,0,0,.489,1.763,2.418,2.418,0,0,0,1.538.885c1.125.192,2.19-.447,3.307-.142,1.91.522,1.091,2.831,1.9,4.1a4.006,4.006,0,0,0,2.921,1.43,9.341,9.341,0,0,1,2.732.6,4.336,4.336,0,0,1,2.116,2.942" transform="translate(-531.909 -321.982)"/><g transform="translate(24.86 24.25)"><line class="a" x2="0.539" y2="1.078" transform="translate(0.539)"/><line class="a" y1="0.96" x2="1.574" transform="translate(0 0.117)"/></g></g></g></svg>