<svg xmlns="http://www.w3.org/2000/svg" width="50" height="49" viewBox="0 0 50 49"><defs><style>.a{fill:#28b873;}.b{fill:#fff;}</style></defs><g transform="translate(-95.875 -563.186)"><ellipse class="a" cx="25" cy="24.5" rx="25" ry="24.5" transform="translate(95.875 563.186)"/><path class="b" d="M19.381,17.61c-1.528,1.528-1.528,3.056-3.056,3.056s-3.056-1.528-4.585-3.056-3.056-3.056-3.056-4.585S10.212,11.5,11.74,9.969,8.683,3.856,7.155,3.856,2.571,8.441,2.571,8.441c0,3.056,3.14,9.253,6.113,12.225s9.169,6.113,12.225,6.113c0,0,4.585-3.056,4.585-4.585s-4.585-6.113-6.113-4.585Z" transform="translate(107.304 572.619)"/></g></svg>