<svg xmlns="http://www.w3.org/2000/svg" width="32.676" height="32.682" viewBox="0 0 32.676 32.682"><defs><style>.a{fill:none;stroke:#464646;stroke-linecap:round;stroke-linejoin:round;stroke-width:1.5px;}</style></defs><g transform="translate(-67.25 -115.25)"><path class="a" d="M74.537,146.125a2.834,2.834,0,0,0-2.514,3.017,2.013,2.013,0,0,1-2.417,1.972A2.068,2.068,0,0,1,68,149.055h0a16.2,16.2,0,0,1,4.433-11.136L85.6,124" transform="translate(0 -3.977)"/><path class="a" d="M96.611,153.051c6.269-1.653,7.04-4.023,7.04-6.285a2.766,2.766,0,1,0-5.531,0,2.566,2.566,0,0,1-1.509,2.263c-3.52,1.508-3.017,6.034-3.017,6.034a2.011,2.011,0,1,1-4.023,0c0-2.011-.5-3.52-2.514-3.52-2.1,0-2.948,1.8-3.52,3.52a2.264,2.264,0,0,1-4.023.5A3.248,3.248,0,0,0,77,154.057" transform="translate(-4.474 -13.921)"/><line class="a" x1="2.514" y2="0.503" transform="translate(81.911 140.903)"/><path class="a" d="M116.577,132.594c0-10.057-5.531-16.594-9.554-16.594-.145,0-.286.006-.422.017a3.987,3.987,0,0,0-3.6,4.006h0" transform="translate(-17.401 0)"/><path class="a" d="M109,125c1.006,0,4.526,3.017,4.526,7.543" transform="translate(-20.384 -4.474)"/><path class="a" d="M85.41,152.914c.393.852-.249,1.922-1.435,2.389a2.22,2.22,0,0,1-2.859-.7c-.393-.852.249-1.922,1.435-2.389A2.22,2.22,0,0,1,85.41,152.914Z" transform="translate(-6.463 -17.898)"/><path class="a" d="M105.523,146.735c.114,1.1-1.029,2.116-2.552,2.269s-2.85-.615-2.963-1.716,1.029-2.116,2.552-2.269S105.41,145.634,105.523,146.735Z" transform="translate(-15.91 -14.418)"/><path class="a" d="M97.139,133.295a2.481,2.481,0,0,1,.2.473c.5,1.651-.824,3.508-2.949,4.147a4.867,4.867,0,0,1-2.242.149" transform="translate(-12.005 -8.598)"/></g></svg>