<svg xmlns="http://www.w3.org/2000/svg" width="24.606" height="25.816" viewBox="0 0 24.606 25.816"><defs><style>.a{fill:none;stroke:#000;stroke-linecap:round;stroke-linejoin:round;}</style></defs><g transform="translate(-415.5 -1272.5)"><path class="a" d="M419.632,1276.632l-2.421,6.053v15.132h18.159l2.421-3.026h1.816v-12.711L437.185,1273H418.421L416,1276.632h18.159l1.211-1.816" transform="translate(0)"/><path class="a" d="M672,1356.974v-15.737l.605-4.237" transform="translate(-236.631 -59.158)"/><path class="a" d="M480,1396.632h10.9v-.605c0-1.671-2.439-3.026-5.448-3.026s-5.448,1.355-5.448,3.026Z" transform="translate(-59.158 -110.921)"/><path class="a" d="M490.9,1529v.605H480V1529" transform="translate(-59.158 -236.631)"/><path class="a" d="M480,1505h10.9" transform="translate(-59.158 -214.447)"/><path class="a" d="M490.9,1465.605h0a1.283,1.283,0,0,1-2.179,0h0a1.283,1.283,0,0,0-2.179,0h0a1.283,1.283,0,0,1-2.179,0h0a1.283,1.283,0,0,0-2.179,0h0a1.283,1.283,0,0,1-2.179,0h0" transform="translate(-59.158 -177.473)"/></g></svg>
