<svg xmlns="http://www.w3.org/2000/svg" width="35.033" height="34.995" viewBox="0 0 35.033 34.995"><defs><style>.a{fill:none;stroke:#464646;stroke-linecap:round;stroke-linejoin:round;stroke-width:1.5px;}</style></defs><g transform="translate(-519.228 -114.956)"><g transform="translate(520 127.067)"><path class="a" d="M533.382,138.029c-1.821-2.207-6.11-1.676-9.581,1.187s-4.808,6.973-2.987,9.18a4.524,4.524,0,0,0,4.231,1.3,10.91,10.91,0,0,0,5.35-2.487C533.865,144.347,535.2,140.237,533.382,138.029Z" transform="translate(-520 -136.667)"/><path class="a" d="M551.691,161.694A9.51,9.51,0,0,1,542,169.773" transform="translate(-530.219 -148.293)"/><line class="a" x2="4.418" y2="5.049" transform="translate(0.814 11.73)"/><line class="a" x2="5.001" y2="5.742" transform="translate(13.382 1.362)"/><path class="a" d="M533.111,143.7c-.691-.837-2.445-.532-3.917.682s-2.106,2.878-1.415,3.715,2.445.532,3.917-.682S533.8,144.536,533.111,143.7Z" transform="translate(-523.484 -139.714)"/></g><g transform="translate(521.071 116)"><path class="a" d="M523.493,162.308l-1.339,2.219a1.071,1.071,0,0,0,.274,1.41l.478.359a1.071,1.071,0,0,0,1.522-.247l1.034-1.49" transform="translate(-522 -137.511)"/><line class="a" x1="9.191" y2="13.252" transform="translate(13.031)"/><line class="a" x1="6.712" y2="11.122" transform="translate(9.745)"/></g><path class="a" d="M557.571,122.847l-27.839,27.23a1.071,1.071,0,0,0-.088,1.434l.373.467a1.071,1.071,0,0,0,1.536.144l26.019-22.384" transform="translate(-4.371 -3.181)"/></g></svg>