<svg xmlns="http://www.w3.org/2000/svg" width="32.39" height="23.458" viewBox="0 0 32.39 23.458"><defs><style>.a,.b{fill:none;stroke:#28b873;stroke-linecap:round;}.b{stroke-miterlimit:10;}</style></defs><g transform="translate(-42.5 -199.883)"><path class="a" d="M163.714,23.7V20.693a2.68,2.68,0,0,0-2.768-2.584H134.928a1.033,1.033,0,1,1,0-2.061h26.446" transform="translate(-90.824 184.335)"/><g transform="translate(43 201.48)"><path class="b" d="M133.623,16.976V36.023a2.4,2.4,0,0,0,2.468,2.313H160.64a2.674,2.674,0,0,0,2.757-2.584V30.946" transform="translate(-133.623 -16.976)"/><path class="b" d="M157.766,28.934h-6.687a2.977,2.977,0,1,1,0-5.953h6.687a.829.829,0,0,1,.829.829v4.3A.829.829,0,0,1,157.766,28.934Z" transform="translate(-127.206 -14.965)"/><line class="b" y2="5.523" transform="translate(2.174 3.252)"/></g></g></svg>